<svg width="14" height="14" viewBox="0 0 14 14" fill="none" xmlns="http://www.w3.org/2000/svg">
<g clip-path="url(#clip0_177_6239)">
<path d="M8.21677 4.08329L5.78323 4.08329L4.96593 3.14585C4.16476 2.22691 5.09941 0.853362 6.26912 1.2307L6.81032 1.40529C6.93354 1.44504 7.06646 1.44504 7.18967 1.40529L7.73087 1.2307C8.90059 0.853362 9.83524 2.22691 9.03406 3.14585L8.21677 4.08329Z" fill="#5D2ECE"/>
<path opacity="0.4" d="M3.31582 5.95604C3.77243 4.49487 5.12565 3.5 6.6565 3.5H7.34349C8.87434 3.5 10.2276 4.49487 10.6842 5.95604L11.4133 8.28937C12.1176 10.5431 10.4339 12.8333 8.07266 12.8333H5.92733C3.56609 12.8333 1.88235 10.5431 2.58665 8.28937L3.31582 5.95604Z" fill="#5D2ECE"/>
<path fill-rule="evenodd" clip-rule="evenodd" d="M9.13259 10.2878C9.24986 10.499 9.17366 10.7653 8.9624 10.8826C8.23145 11.2883 7.60647 11.5219 6.96159 11.5193C6.31453 11.5166 5.71307 11.2766 5.02967 10.878C4.82095 10.7563 4.75042 10.4884 4.87214 10.2797C4.99387 10.071 5.26175 10.0004 5.47047 10.1222C6.10213 10.4905 6.5442 10.6426 6.96515 10.6443C7.38827 10.646 7.85576 10.4961 8.53775 10.1176C8.74901 10.0003 9.01533 10.0765 9.13259 10.2878Z" fill="#5D2ECE"/>
</g>
<defs>
<clipPath id="clip0_177_6239">
<rect width="14" height="14" fill="white"/>
</clipPath>
</defs>
</svg>
