<svg width="153" height="150" viewBox="0 0 153 150" fill="none" xmlns="http://www.w3.org/2000/svg">
<g clip-path="url(#clip0_179_8371)">
<ellipse cx="76.1029" cy="75" rx="76.1029" ry="75" fill="white"/>
<path opacity="0.4" d="M39.2054 63.6668L115.03 63.6668C119.343 63.6668 121.037 58.0359 117.448 55.6276L81.9537 31.8075C79.0252 29.8422 75.2101 29.8422 72.2817 31.8075L36.7874 55.6276C33.1988 58.0359 34.8925 63.6668 39.2054 63.6668Z" fill="#0576F0"/>
<rect x="51.75" y="63.667" width="16.9118" height="33.3333" fill="#0576F0"/>
<rect x="85.5735" y="63.667" width="16.9118" height="33.3333" fill="#0576F0"/>
<path opacity="0.4" d="M108.328 97C109.93 97 111.394 97.8917 112.11 99.3033L116.338 107.637C117.743 110.407 115.699 113.667 112.556 113.667L41.6791 113.667C38.5362 113.667 36.492 110.407 37.8976 107.637L42.1255 99.3033C42.8417 97.8917 44.3057 97 45.9071 97L108.328 97Z" fill="#0576F0"/>
</g>
<defs>
<clipPath id="clip0_179_8371">
<rect width="152.206" height="150" fill="white"/>
</clipPath>
</defs>
</svg>
