<svg width="65" height="64" viewBox="0 0 65 64" fill="none" xmlns="http://www.w3.org/2000/svg">
<g clip-path="url(#clip0_176_6226)">
<circle opacity="0.1" cx="32.3334" cy="32" r="32" fill="#A996FF"/>
<circle opacity="0.1" cx="32.3334" cy="32" r="25" fill="#A996FF"/>
<path opacity="0.4" d="M42.3332 25C43.7139 25 44.8332 26.1193 44.8332 27.5L44.8332 40C44.8332 41.3807 43.7139 42.5 42.3332 42.5C40.9525 42.5 39.8332 41.3807 39.8332 40L39.8332 27.5C39.8332 26.1193 40.9525 25 42.3332 25Z" fill="#8B4DFF"/>
<path opacity="0.4" d="M22.3333 35C23.714 35 24.8333 36.1193 24.8333 37.5V40C24.8333 41.3807 23.714 42.5 22.3333 42.5C20.9526 42.5 19.8333 41.3807 19.8333 40L19.8333 37.5C19.8333 36.1193 20.9526 35 22.3333 35Z" fill="#8B4DFF"/>
<path opacity="0.4" d="M32.3333 30C33.714 30 34.8333 31.1193 34.8333 32.5L34.8333 40C34.8333 41.3807 33.714 42.5 32.3333 42.5C30.9526 42.5 29.8333 41.3807 29.8333 40L29.8333 32.5C29.8333 31.1193 30.9526 30 32.3333 30Z" fill="#8B4DFF"/>
<path fill-rule="evenodd" clip-rule="evenodd" d="M40.1457 17.5C40.1457 16.9822 40.5655 16.5625 41.0832 16.5625H43.5832C44.7913 16.5625 45.7707 17.5419 45.7707 18.75V21.25C45.7707 21.7678 45.351 22.1875 44.8332 22.1875C44.3155 22.1875 43.8957 21.7678 43.8957 21.25V19.7014C39.042 23.5895 35.2784 26.1154 31.6342 27.8056C27.9071 29.5343 24.3501 30.368 19.952 30.9299C19.4385 30.9956 18.9689 30.6324 18.9033 30.1188C18.8377 29.6052 19.2008 29.1357 19.7144 29.0701C23.994 28.5232 27.3485 27.7265 30.8453 26.1047C34.2317 24.534 37.7933 22.1702 42.4739 18.4375H41.0832C40.5655 18.4375 40.1457 18.0178 40.1457 17.5Z" fill="#8B4DFF"/>
</g>
<defs>
<clipPath id="clip0_176_6226">
<rect width="64" height="64" fill="white" transform="translate(0.333389)"/>
</clipPath>
</defs>
</svg>
