<svg width="20" height="20" viewBox="0 0 20 20" fill="none" xmlns="http://www.w3.org/2000/svg">
<g clip-path="url(#clip0_176_6231)">
<path d="M9.75 0C4.365 0 0 4.365 0 9.75C0 15.135 4.365 19.5 9.75 19.5C15.135 19.5 19.5 15.135 19.5 9.75C19.494 4.368 15.132 0.006 9.75 0ZM14.031 8.031L8.781 13.281C8.64 13.421 8.449 13.501 8.25 13.501C8.051 13.501 7.86 13.421 7.719 13.281L5.469 11.031C5.176 10.738 5.176 10.262 5.469 9.969C5.762 9.676 6.238 9.676 6.531 9.969L8.25 11.69L12.969 6.969C13.262 6.676 13.738 6.676 14.031 6.969C14.324 7.262 14.324 7.738 14.031 8.031Z" fill="#7C4DFF"/>
</g>
<defs>
<clipPath id="clip0_176_6231">
<rect width="19.5" height="19.5" fill="white"/>
</clipPath>
</defs>
</svg>
