<svg width="64" height="64" viewBox="0 0 64 64" fill="none" xmlns="http://www.w3.org/2000/svg">
<g clip-path="url(#clip0_178_7211)">
<circle opacity="0.1" cx="32" cy="32" r="32" fill="#50C8FC"/>
<circle opacity="0.1" cx="31.6665" cy="32" r="25" fill="#50C8FC"/>
<path d="M30.9625 40.24C26.8825 40.24 24.6505 37.984 24.5065 34.696H27.4105C27.5785 36.496 28.5865 37.84 30.8905 37.84C33.1225 37.84 34.1545 36.76 34.1545 35.056C34.1545 33.184 33.1465 32.248 31.0585 32.248H29.7385V29.968H30.9625C32.9305 29.968 33.8185 29.056 33.8185 27.448C33.8185 26.056 32.9305 25.024 31.1545 25.024C29.3305 25.024 28.1545 26.128 27.9625 27.856H25.1305C25.2985 24.88 27.5305 22.6 31.2025 22.6C34.7785 22.6 36.8665 24.664 36.8665 27.208C36.8665 29.152 35.7385 30.328 34.0825 30.952C36.0745 31.408 37.3945 32.824 37.3945 35.104C37.3945 38.272 34.8985 40.24 30.9625 40.24Z" fill="#0576F0"/>
</g>
<defs>
<clipPath id="clip0_178_7211">
<rect width="64" height="64" fill="white"/>
</clipPath>
</defs>
</svg>
