<svg width="35" height="45" viewBox="0 0 35 45" fill="none" xmlns="http://www.w3.org/2000/svg">
<g clip-path="url(#clip0_176_6221)">
<g clip-path="url(#clip1_176_6221)">
<path d="M12.8254 17.8568C13.5119 18.3754 16.0867 18.6636 17.0386 18.6347C17.2703 18.6276 17.4184 18.5329 17.5112 18.3948C17.6044 18.5329 17.7523 18.6276 17.9838 18.6347C18.936 18.6636 21.5105 18.3754 22.1973 17.8568C22.8839 17.3381 22.3117 16.3295 22.4262 15.8108C22.5405 15.2919 23.9423 13.563 25.2012 13.5054C26.4599 13.4478 28.7199 14.3699 29.3493 16.4735C29.9786 18.5773 29.8069 20.7384 28.205 21.6317C26.6029 22.525 25.0868 22.0351 24.8006 21.6317C24.5145 21.2284 23.313 21.2571 22.8553 21.8623C22.3975 22.4674 20.7954 23.5337 20.7954 24.1677C20.7954 24.1999 20.7958 24.2325 20.7961 24.2652C20.4649 24.1071 20.0655 24.0414 19.8694 24.487C19.5014 25.3244 18.8106 27.7284 18.9948 28.5374C19.1787 29.3464 20.3579 29.0992 20.6166 29.5195C22.3472 32.3313 20.5867 34.6112 18.8019 35.2629C18.7803 34.8273 18.6066 31.2956 18.6326 30.6609C18.6607 29.9802 18.8059 24.6089 18.8076 24.5547C18.8103 24.4543 18.8458 24.3609 18.9101 24.2854C20.1992 22.7666 21.0433 21.7792 21.1008 21.718C21.1633 21.6757 21.4414 21.604 21.6254 21.5568C21.8011 21.5115 21.9828 21.4647 22.1153 21.4161C22.299 21.3488 22.8881 20.9106 24.2267 19.8883C24.8396 19.4202 25.4732 18.9361 25.6451 18.8325C26.0878 18.5647 27.9793 17.5345 28.1438 17.4714L28.0735 17.2523L28.019 17.0283C27.8374 17.0731 25.6776 18.2752 25.4095 18.4372C25.2165 18.5538 24.6297 19.0019 23.9503 19.5209C23.2255 20.0745 22.1298 20.9111 21.959 20.9829C21.8476 21.0237 21.6771 21.0676 21.512 21.1099C21.1228 21.2103 20.8973 21.2722 20.7883 21.3824C20.6981 21.4731 19.5281 22.8481 18.5624 23.9855C18.431 24.1401 18.3557 24.3374 18.3499 24.542C18.3485 24.5962 18.2033 29.9645 18.1753 30.6416C18.1465 31.3359 18.3389 35.1685 18.3469 35.3314L18.6416 35.3163C18.2673 35.4323 17.8969 35.4768 17.5619 35.4363C17.2452 35.398 16.9358 35.3388 16.6367 35.2627H16.6587C16.6639 33.6009 16.6956 29.1833 16.7791 28.7028C16.8696 28.1812 16.8154 25.7118 16.7879 24.6741C16.7831 24.4951 16.7261 24.3232 16.6226 24.1766C15.3965 22.4461 14.6222 21.5164 14.3214 21.4133C14.222 21.3794 14.1205 21.3486 14.0141 21.3161C13.6726 21.2121 13.2858 21.0944 12.7335 20.7947C12.4384 20.6347 11.4846 19.9817 10.4748 19.2907C8.48929 17.9313 7.26153 17.1008 6.95635 17.028L6.84988 17.4765C7.11763 17.55 8.98317 18.8268 10.2176 19.6719C11.2817 20.4003 12.2005 21.0293 12.5168 21.2009C13.1095 21.5224 13.5374 21.6527 13.8816 21.7573C13.983 21.7882 14.0793 21.8178 14.1703 21.8485C14.3419 21.9269 15.0657 22.7727 16.2498 24.4441C16.3002 24.5154 16.3282 24.5992 16.3302 24.6864C16.374 26.3324 16.3965 28.2308 16.3282 28.6232C16.228 29.1988 16.2047 34.2537 16.2015 35.1364C14.8409 34.6841 13.8036 33.7994 13.6779 32.4549C13.5129 30.6876 14.4691 29.5228 14.9086 29.4214C15.3482 29.3198 15.7584 28.2383 15.4195 27.6003C15.081 26.9622 14.7718 25.1291 14.2435 24.8882C14.2155 24.8753 14.1872 24.8625 14.1587 24.8501C14.2188 24.6393 14.2272 24.3997 14.2272 24.1677C14.2272 23.5337 12.625 22.4674 12.1675 21.8623C11.7097 21.2571 10.5082 21.2284 10.222 21.6317C9.93601 22.0351 8.41981 22.525 6.81778 21.6317C5.21563 20.7384 5.04405 18.5773 5.67339 16.4735C6.30273 14.3699 8.56286 13.4478 9.82152 13.5054C11.0804 13.563 12.4821 15.2919 12.5966 15.8108C12.711 16.3295 12.1388 17.3381 12.8254 17.8568Z" fill="white"/>
<path d="M29.1348 26.0869C30.6869 25.6199 30.3262 23.8792 30.1623 23.3112L28.7174 24.7883C28.9074 24.816 29.0405 24.8595 29.0746 24.9169C29.1336 25.0156 29.152 25.4811 29.1348 26.0869Z" fill="#00A650"/>
<path d="M30.5622 28.0291C31.2228 26.8647 31.4063 25.2697 31.4193 22.3798L31.0193 22.5823C31.1121 23.7215 31.0059 24.6163 30.6767 25.6847C30.4635 26.376 29.6629 26.8012 29.086 27.0243C29.0134 28.0145 28.8718 29.0727 28.6742 29.5275C28.2737 30.4497 29.8758 29.2394 30.5622 28.0291Z" fill="#00A650"/>
<path d="M33.423 20.1909C33.366 19.3839 32.9448 18.2772 32.6691 19.1764C32.5055 19.7092 32.259 20.7023 32.0963 22.0369C31.9844 22.955 31.9121 24.0332 31.9356 25.2401C31.9926 28.2019 31.4472 28.7661 29.6887 30.2417C27.9303 31.7176 27.4727 32.1211 27.4727 32.1211C27.4727 32.1211 28.5612 27.7764 28.446 26.7213C28.3855 26.1662 28.2313 25.7225 27.9948 25.5269C27.7819 25.3509 27.5024 25.3756 27.1616 25.7098C26.4427 26.4152 25.8864 30.9108 25.2492 32.1787C24.6119 33.4466 23.9768 34.7989 23.9768 34.7989C23.9768 34.7989 22.7124 37.6108 23.9768 38.3528C25.2412 39.0946 25.4965 39.1523 28.1438 36.0401C30.7911 32.9279 33.2515 30.9684 33.423 28.2597C33.5949 25.5508 33.4804 20.9979 33.423 20.1909Z" fill="#00A650"/>
<path d="M5.71128 26.0869C5.69409 25.4811 5.71244 25.0156 5.77139 24.9169C5.80556 24.8595 5.93873 24.816 6.12866 24.7883L4.68377 23.3112C4.51988 23.8792 4.15914 25.6199 5.71128 26.0869Z" fill="white"/>
<path d="M6.17184 29.5275C5.97434 29.0727 5.8326 28.0145 5.76019 27.0243C5.18319 26.8012 4.38248 26.376 4.16936 25.6847C3.84007 24.6163 3.73394 23.7215 3.82672 22.5823L3.42672 21.7854C3.43982 24.6754 3.62324 26.8647 4.28383 28.0291C4.97034 29.2394 6.57242 30.4497 6.17184 29.5275Z" fill="white"/>
<path d="M10.8692 38.3528C12.1336 37.6108 10.8692 34.7989 10.8692 34.7989C10.8692 34.7989 10.2342 33.4466 9.59689 32.1787C8.95953 30.9108 8.40332 26.4152 7.68445 25.7098C7.34378 25.3756 7.06424 25.3509 6.85132 25.5269C6.61475 25.7225 6.46062 26.1662 6.40006 26.7213C6.28481 27.7764 7.37334 32.1211 7.37334 32.1211C7.37334 32.1211 6.91578 31.7176 5.15736 30.2417C3.39892 28.7661 2.85346 28.2019 2.91057 25.2401C2.93401 24.0332 2.86153 22.955 2.74973 22.0369C2.58707 20.7023 2.34048 19.7092 2.17705 19.1764C1.90129 18.2772 1.48018 19.3839 1.42301 20.1909C1.36571 20.9979 1.2513 25.5508 1.42301 28.2597C1.59459 30.9684 4.05496 32.9279 6.70219 36.0401C9.34964 39.1523 9.60482 39.0946 10.8692 38.3528Z" fill="#00A650"/>
<path d="M8.97288 9.79757C8.97288 9.79757 9.16355 9.75929 9.39242 9.5096C9.62131 9.25992 11.3187 6.30117 11.6239 5.66731C11.929 5.03345 12.2913 5.14863 12.2913 5.14863L12.3677 5.41746C12.4439 6.32031 11.4522 7.68458 10.9564 8.16481C10.4604 8.64503 10.9564 9.01007 10.9564 9.01007C10.9564 9.01007 11.2042 8.8754 11.8526 8.03014C12.5011 7.18488 12.7301 5.66731 12.7301 5.66731L12.978 5.35986H13.3602C13.3774 5.40302 13.4015 5.45876 13.4357 5.53281C13.6836 6.07063 13.0542 7.35783 12.711 7.93427C12.3677 8.51054 12.711 8.52985 12.711 8.52985C13.9721 7.62666 13.9125 5.22537 13.7981 4.99483C13.6836 4.76429 13.1878 4.89878 12.9589 4.80291C12.7301 4.70669 12.9589 4.24561 12.9589 4.24561C12.9589 4.24561 13.9125 3.99593 13.8743 4.13026C13.8361 4.26475 14.027 4.55305 14.3862 4.72583C14.7456 4.89878 15.362 4.74515 15.362 4.74515L15.4192 5.09087L15.6099 5.22537C15.6481 7.62682 16.3917 7.81891 17.1355 8.52985C17.8794 9.24044 18.7948 9.39425 18.7948 9.39425C18.5279 10.0857 18.8331 11.2577 18.8331 11.2577C18.8331 11.2577 19.3098 11.4691 19.6912 11.1232C20.0728 10.7775 19.9011 9.39425 19.9011 9.31734C19.9011 9.24044 19.5959 9.81688 19.5959 9.81688L19.3855 9.31734C19.1753 8.81798 18.9666 7.99186 18.9666 7.99186C18.9666 7.99186 18.7378 7.39628 19.1955 7.85736C19.6531 8.31845 19.6912 8.33759 19.8248 8.04945C19.9583 7.76132 19.7104 6.85846 19.7104 6.85846C19.7104 6.85846 19.6912 6.74311 19.8438 6.8007C19.9965 6.85847 20.3397 7.1508 20.3397 7.1508C20.3397 7.1508 20.416 6.70466 20.5496 6.7814C20.6831 6.85847 20.7021 7.0121 20.8546 7.43457C21.0073 7.85736 21.2743 7.64597 21.2743 7.64597C21.2743 7.64597 21.217 7.35783 21.2933 6.87761C21.3697 6.39739 21.6937 6.76225 21.6937 6.76225C21.7891 7.76132 22.6284 8.64503 22.6284 8.64503C23.0098 8.011 22.0561 6.08994 22.0561 6.08994C22.0561 6.08994 21.8273 5.99389 21.3123 5.99389C20.7974 5.99389 19.7104 6.18598 19.7104 6.18598C19.7104 6.18598 19.4052 6.14753 18.9093 5.53281C18.4134 4.91809 18.6422 4.62979 18.6422 4.62979C18.6422 4.62979 18.8521 4.61065 19.0618 4.66841C19.2717 4.72584 19.5769 5.34072 19.9965 5.60955C20.416 5.87871 20.969 5.47505 21.3507 5.05259C21.7321 4.62979 21.7321 3.65003 21.7321 3.65003C21.7091 3.27509 21.6859 2.89998 21.6631 2.52487C21.6481 2.28005 21.8361 2.06798 22.0796 2.06311C22.3232 2.05841 22.5981 2.07302 22.8953 2.12289C23.8174 2.27753 24.4815 2.69194 24.8408 2.95858C24.6911 2.71964 23.4579 1.50011 22.1515 0.979756C21.6722 0.788842 21.2905 1.09679 21.0563 1.38559C20.8873 1.5938 20.8226 1.86951 20.8749 2.1333C21.0866 3.19836 21.0043 4.02901 20.7974 4.34166C20.5686 4.68755 19.6912 4.5722 19.6912 4.5722C19.1192 4.14957 18.8903 2.26696 18.8903 1.53688C18.8903 0.806975 18.4574 0.23205 17.4789 0.26899C16.5006 0.30593 16.1822 1.03752 16.1822 1.03752C16.1822 1.03752 16.5636 1.19115 17.0211 1.80587C17.4789 2.42059 17.2118 4.34166 17.2118 4.34166L16.983 4.26475C16.983 4.26475 16.8304 4.5722 16.1822 4.5722C15.5336 4.5722 14.6944 3.88058 14.6944 2.84339C14.6944 1.80587 14.4425 1.04558 14.3894 1.03752C13.283 0.864401 12.3867 2.03642 11.7001 2.24782C11.0135 2.45905 10.9373 2.84339 10.9373 2.84339C11.8146 3.05446 12.4439 2.45904 13.1305 1.99796C13.8171 1.53688 13.8933 1.82501 13.8933 1.82501C14.0078 2.63199 13.7028 3.11222 13.7028 3.11222C13.1496 3.01617 13.3022 2.63199 13.3022 2.63199C13.3022 2.63199 12.8254 2.70873 12.2149 3.24671C11.6047 3.78453 10.7084 3.82315 10.7084 3.82315C10.7274 4.41856 11.3759 4.24561 11.3759 4.24561L11.1852 4.62979C10.8038 4.55306 10.6703 4.84119 10.6703 4.84119C10.8229 5.22537 11.3759 5.09087 11.3759 5.09087L11.3187 5.32158C10.6894 5.70559 9.35433 8.39518 8.97288 9.04852C8.59139 9.70152 8.97288 9.79757 8.97288 9.79757Z" fill="#00A650"/>
<path d="M14.8088 7.30983C14.971 7.74203 15.1902 7.64598 15.1902 7.64598C15.1902 7.64598 15.381 6.74313 15.1902 6.16686C14.9996 5.59042 14.9423 5.51369 14.9423 5.51369C14.9423 5.51369 14.5419 5.34074 14.3702 5.70561C14.1985 6.07065 13.7598 7.4732 13.7981 7.78048L13.8361 8.08792C13.8361 8.08792 14.4527 7.91246 14.5354 6.78024C14.6181 5.64802 14.8088 6.37826 14.8088 6.37826C14.8088 6.37826 14.6793 6.9641 14.8088 7.30983Z" fill="#00A650"/>
<path d="M22.8763 5.11019C23.1815 4.9181 23.3817 5.24452 23.3817 5.24452C23.4865 5.03345 23.2195 4.72584 23.2195 4.72584C23.2195 4.72584 23.4294 4.49547 23.7728 4.80291C24.116 5.11019 24.385 5.09088 24.385 5.09088C24.1963 4.9181 24.0206 4.09198 24.0206 4.09198C24.224 4.03438 24.4275 3.97679 24.6309 3.91903C24.1833 3.11507 23.7171 2.84205 23.3632 2.74618C22.9129 2.62444 22.1325 2.65114 22.1325 2.65114C22.1168 2.81183 22.1031 3.04842 22.1228 3.33319C22.1475 3.68597 22.2087 3.90325 22.2468 4.11112C22.301 4.40446 22.337 4.82776 22.2468 5.37918C22.2468 5.37918 22.5712 5.30228 22.8763 5.11019Z" fill="#00A650"/>
<path d="M24.2303 9.18286C24.2303 9.18286 24.5736 9.04853 24.0968 8.22241C23.6201 7.3963 23.4079 6.91607 23.3042 6.30119C23.2005 5.68647 22.6666 5.917 22.6666 5.917C22.6666 5.917 22.8381 8.27984 24.2303 9.18286Z" fill="#00A650"/>
<path d="M24.0968 5.95545C24.0968 5.95545 23.9825 7.81892 25.1458 8.76023C26.3093 9.70153 26.4047 9.79758 26.4047 9.79758C26.4047 9.79758 26.3663 9.31735 25.6799 8.18396C24.9933 7.05039 24.6119 6.20513 24.0968 5.95545Z" fill="#00A650"/>
<path d="M17.6506 11.1615C17.8794 11.1232 17.8794 9.72084 17.8794 9.72084C17.8794 9.72084 17.4407 9.77844 17.1548 9.43271C16.8686 9.08681 16.5062 9.06767 16.43 9.31735C16.3537 9.56704 15.5909 10.9696 16.6779 11.6035C16.6779 11.6035 17.0593 11.3346 17.4027 11.6035C17.4027 11.6035 17.4217 11.2001 17.6506 11.1615Z" fill="#00A650"/>
<path d="M20.8356 10.4701C20.6831 10.8351 20.9883 11.2193 20.9883 11.2193H21.3507C21.3507 11.2193 21.3507 10.931 21.6937 10.9887C22.0371 11.0463 22.3424 10.9118 22.3424 10.9118C22.3424 10.9118 22.2468 10.8735 21.9775 10.5661C21.7081 10.2588 21.3053 10.1391 21.3507 10.2011C21.5602 10.4894 21.4077 10.7102 21.4077 10.7102L20.8356 10.4701Z" fill="#00A650"/>
<path d="M19.5579 13.8513C19.5761 13.8451 19.5647 13.8308 19.5339 13.8145C19.5367 13.8451 19.5421 13.8565 19.5579 13.8513Z" fill="#00A650"/>
<path d="M18.9666 12.1221C18.9666 12.1221 18.8331 12.0261 18.8139 12.6792C18.7948 13.3324 18.5852 13.6207 18.5852 13.6207C18.5852 13.6207 18.7948 13.7361 19.1002 13.7361C19.3077 13.7361 19.4685 13.7801 19.5339 13.8145C19.5269 13.7349 19.5401 13.5121 19.4434 13.0251C19.3099 12.3527 18.9666 12.1221 18.9666 12.1221Z" fill="#00A650"/>
<path d="M17.6506 13.2364C17.6506 13.2364 18.0511 13.275 18.2037 12.985C18.3564 12.6949 18.2037 12.1173 18.2037 12.1173C18.2037 12.1173 18.032 12.2375 17.6506 12.3527C17.2692 12.468 17.4789 13.2382 17.4789 13.2382L17.6506 13.2364Z" fill="#00A650"/>
<path d="M16.4872 12.985C16.2964 13.4478 16.099 13.6014 16.099 13.6014C16.099 13.6014 16.4872 13.8513 16.8304 13.6014C17.1738 13.3516 16.9891 13.119 16.9891 13.119V12.5258C16.945 12.5258 16.6779 12.5221 16.4872 12.985Z" fill="#00A650"/>
<path d="M5.7305 40.9387C5.72983 40.9394 7.32015 39.8766 8.64503 39.4205C8.21319 38.8568 7.36964 38.472 6.39811 38.472C4.98903 38.472 3.84256 39.2794 3.84256 40.2721C3.84256 40.7332 4.57198 41.5442 5.7305 40.9387Z" fill="#00A650"/>
<path d="M29.1806 41.5442C27.1681 40.342 23.9581 38.9105 19.2393 38.6679L19.2323 38.7072C18.7213 38.6703 18.2027 38.6434 17.6716 38.6342C17.6157 38.6345 17.5619 38.6332 17.5057 38.6338C17.4495 38.6332 17.3957 38.6345 17.3399 38.6342C16.8088 38.6434 16.2902 38.6703 15.7791 38.7072L15.7723 38.6679C11.0534 38.9105 7.84335 40.342 5.83077 41.5442C4.98674 42.0483 4.57066 41.687 4.57198 41.6882L6.43458 43.9737C6.89409 44.4346 7.61414 44.4953 8.14515 44.1202C10.312 42.5895 13.5896 41.6112 17.2535 41.6112C17.3384 41.6112 17.4212 41.6161 17.5057 41.6172C17.5901 41.6161 17.6731 41.6112 17.7579 41.6112C21.4219 41.6112 24.6994 42.5895 26.8663 44.1202C27.3973 44.4953 28.1173 44.4346 28.5769 43.9737L30.4395 41.6882C30.4408 41.687 30.0248 42.0483 29.1806 41.5442Z" fill="#00A650"/>
<path d="M28.6132 38.472C27.6419 38.472 26.7983 38.8568 26.3663 39.4205C27.6914 39.8766 29.2817 40.9394 29.2808 40.9387C30.4395 41.5442 31.169 40.7332 31.169 40.2721C31.169 39.2794 30.0225 38.472 28.6132 38.472Z" fill="#00A650"/>
<path d="M17.8464 0.893295C17.8464 0.983463 17.7129 1.05667 17.5482 1.05667C17.3835 1.05667 17.25 0.983463 17.25 0.893295C17.25 0.803127 17.3835 0.730086 17.5482 0.730086C17.7129 0.730086 17.8464 0.803127 17.8464 0.893295Z" fill="black"/>
<path d="M18.5412 35.6116L16.4814 35.3314L16.5687 24.571C15.8006 23.3031 14.4155 21.3463 12.9399 21.0553C11.6239 20.796 7.73349 17.6682 7.24936 17.308L8.34883 15.8081C10.1157 17.1223 11.132 18.3754 14.0968 19.5421C15.0171 19.9041 16.4992 21.3177 17.4494 22.2118C18.8616 21.0553 19.2738 20.3321 20.135 20.162C20.7601 19.9545 24.518 17.7335 27.0229 15.9836L28.0596 17.3262C25.4147 18.3941 22.1001 21.0395 21.1105 21.6089C20.7287 21.7783 19.5997 23.2462 18.5816 24.4281L18.5412 35.6116Z" fill="#00ADEF"/>
<path d="M28.7886 25.2401C28.7886 25.2401 29.4132 25.2737 29.7589 24.2019C30.1045 23.1302 28.4644 24.7213 28.4644 24.7213L28.7886 25.2401Z" fill="#231F20"/>
<path d="M33.423 28.2597C33.2515 30.9684 30.7911 32.9279 28.1438 36.0401C25.4965 39.1523 25.2412 39.0946 23.9768 38.3528C22.7124 37.6107 23.9768 34.7989 23.9768 34.7989C23.9768 34.7989 24.6119 33.4466 25.2492 32.1786C25.8864 30.9108 26.4427 26.4152 27.1616 25.7098C27.5024 25.3756 27.7819 25.3509 27.9948 25.5269C28.2313 25.7225 28.3855 26.1661 28.446 26.7213C28.5612 27.7764 27.4727 32.1211 27.4727 32.1211C27.4727 32.1211 27.9303 31.7176 29.6887 30.2417C31.4472 28.7661 31.9926 28.2019 31.9356 25.2401C31.9121 24.0332 31.9844 22.955 32.0963 22.0369C32.259 20.7023 32.5055 19.7092 32.669 19.1764C32.9448 18.2772 33.366 19.3839 33.423 20.1909C33.4803 20.9979 33.5949 25.5508 33.423 28.2597ZM31.169 40.2721C31.169 40.7332 30.4395 41.5442 29.2808 40.9387C29.2817 40.9394 27.6914 39.8765 26.3663 39.4205C26.7982 38.8568 27.6419 38.4719 28.6132 38.4719C30.0224 38.4719 31.169 39.2794 31.169 40.2721ZM28.5769 43.9737C28.1173 44.4346 27.3973 44.4953 26.8663 44.1202C24.6994 42.5895 21.4219 41.6112 17.7579 41.6112C17.6731 41.6112 17.5901 41.6161 17.5057 41.6172C17.4212 41.6161 17.3384 41.6112 17.2535 41.6112C13.5896 41.6112 10.312 42.5895 8.14515 44.1202C7.61414 44.4953 6.89409 44.4346 6.43458 43.9737L4.57197 41.6881C4.57066 41.687 4.98674 42.0483 5.83076 41.5442C7.84335 40.342 11.0534 38.9105 15.7723 38.6679L15.7791 38.7072C16.2902 38.6703 16.8088 38.6434 17.3399 38.6341C17.3957 38.6345 17.4495 38.6332 17.5057 38.6338C17.5619 38.6332 17.6157 38.6345 17.6716 38.6341C18.2027 38.6434 18.7213 38.6703 19.2323 38.7072L19.2393 38.6679C23.9581 38.9105 27.1681 40.342 29.1806 41.5442C30.0248 42.0483 30.4408 41.687 30.4395 41.6881L28.5769 43.9737ZM3.84255 40.2721C3.84255 39.2794 4.98903 38.4719 6.39811 38.4719C7.36963 38.4719 8.21319 38.8568 8.64503 39.4205C7.32014 39.8765 5.72983 40.9394 5.7305 40.9387C4.57197 41.5442 3.84255 40.7332 3.84255 40.2721ZM1.42301 28.2597C1.25129 25.5508 1.36571 20.9979 1.42301 20.1909C1.48018 19.3839 1.90128 18.2772 2.17705 19.1764C2.34047 19.7092 2.58706 20.7023 2.74972 22.0369C2.86153 22.955 2.934 24.0332 2.91057 25.2401C2.85346 28.2019 3.39891 28.7661 5.15735 30.2417C6.91578 31.7176 7.37334 32.1211 7.37334 32.1211C7.37334 32.1211 6.28481 27.7764 6.40006 26.7213C6.46062 26.1661 6.61474 25.7225 6.85132 25.5269C7.06423 25.3509 7.34378 25.3756 7.68445 25.7098C8.40332 26.4152 8.95953 30.9108 9.59688 32.1786C10.2342 33.4466 10.8692 34.7989 10.8692 34.7989C10.8692 34.7989 12.1336 37.6107 10.8692 38.3528C9.60482 39.0946 9.34964 39.1523 6.70219 36.0401C4.05496 32.9279 1.59458 30.9684 1.42301 28.2597ZM5.71128 26.0869C4.36361 25.6814 4.45814 24.3163 4.61376 23.5917C4.7162 23.6997 4.82103 23.8055 4.92965 23.9083C5.33283 24.2894 5.7396 24.5715 6.13948 24.7869L6.12866 24.7883C5.93873 24.816 5.80556 24.8595 5.77139 24.9169C5.71245 25.0156 5.69409 25.4811 5.71128 26.0869ZM4.16936 25.6847C4.38248 26.376 5.18319 26.8012 5.76019 27.0243C5.8326 28.0145 5.97434 29.0727 6.17184 29.5275C6.57242 30.4497 4.97034 29.2394 4.28383 28.0291C3.62323 26.8647 3.43982 25.2697 3.42672 22.3798C3.42627 22.2656 3.42562 22.1534 3.42562 22.035L3.42497 21.9909C3.54804 22.206 3.68218 22.4152 3.82445 22.6195C3.73719 23.7408 3.84365 24.6284 4.16936 25.6847ZM3.69943 14.5427C4.72942 13.1885 6.12573 11.2866 8.80325 11.0272C11.4808 10.7679 12.8826 11.8758 14.0842 13.2382C15.2857 14.6005 17.1738 16.3295 17.2597 16.877C17.2908 17.0767 17.3575 17.326 17.3875 17.5596C17.3729 17.6887 17.3667 17.8311 17.3792 17.9699C17.3272 18.1756 17.1752 18.3123 16.8221 18.289C15.9436 18.2314 13.7694 17.7992 13.3975 17.5975C13.0256 17.3957 12.8539 16.6176 12.8826 16.0989C12.9112 15.5802 12.5679 14.4381 11.3664 13.7124C10.1648 12.9867 9.2138 12.7669 8.36243 13.2382C8.23161 13.3108 5.81651 14.197 5.27292 16.5889C4.72942 18.9806 4.78326 20.8484 6.81778 22.1504C8.8521 23.4525 11.1946 21.8045 11.1946 21.8045L11.7668 22.1215C11.7668 22.1215 13.7121 23.7066 13.6551 24.1388C13.6257 24.3601 13.6407 24.5435 13.5514 24.6815C13.3524 24.6759 13.1616 24.7408 12.9936 24.9313C12.958 24.9365 12.9223 24.9416 12.8826 24.9456C12.1824 25.0186 9.97631 25.3362 8.55635 25.2087C8.33169 24.9344 7.63628 24.7957 6.99359 24.7624C6.27557 24.4422 5.43735 23.9437 4.70753 23.2319C4.72792 23.1673 4.74159 23.1302 4.74159 23.1302C4.74159 23.1302 4.06016 21.4895 3.87166 22.2281C3.6952 21.9628 3.53775 21.6772 3.40393 21.3706C3.33427 20.2774 3.09646 19.4014 2.78846 18.8013C2.65446 17.1044 3.00302 15.4585 3.69943 14.5427ZM8.47887 10.7995C8.97882 10.6448 9.21999 10.4719 9.28673 10.422C9.52546 10.2434 9.72874 10.0162 9.88242 9.75307L9.96458 9.61253C12.9017 9.38904 13.3594 8.71673 13.3594 8.71673C13.3594 8.71673 13.7028 8.76039 14.2367 8.40358C14.7708 8.04677 15.7624 7.82865 15.7624 7.82865C15.877 9.12559 16.7924 8.52984 16.1438 9.05859C15.4956 9.58768 15.6481 11.793 15.6481 11.793L15.915 11.7163L15.9533 12.4082L16.2964 12.4361C16.2964 13.0107 15.1023 13.4924 14.8561 13.586C14.0225 12.7486 13.1489 11.925 12.5106 11.4594C10.8515 10.2491 8.47887 10.7995 8.47887 10.7995C8.47887 10.7995 11.9671 10.5661 8.34473 10.8388H8.34459C8.39225 10.8257 8.43731 10.8126 8.47887 10.7995ZM14.5354 6.78022C14.4527 7.91244 13.8361 8.0879 13.8361 8.0879L13.7981 7.78046C13.7598 7.47319 14.1985 6.07063 14.3702 5.70559C14.5419 5.34072 14.9423 5.51367 14.9423 5.51367C14.9423 5.51367 14.9996 5.59041 15.1902 6.16684C15.381 6.74311 15.1902 7.64597 15.1902 7.64597C15.1902 7.64597 14.971 7.74201 14.8088 7.30981C14.6793 6.96408 14.8088 6.37824 14.8088 6.37824C14.8088 6.37824 14.6181 5.648 14.5354 6.78022ZM8.97288 9.04852C9.35433 8.39518 10.6894 5.70559 11.3187 5.32158L11.3759 5.09087C11.3759 5.09087 10.8229 5.22537 10.6703 4.84119C10.6703 4.84119 10.8038 4.55305 11.1852 4.62979L11.3759 4.24561C11.3759 4.24561 10.7274 4.41856 10.7084 3.82315C10.7084 3.82315 11.6047 3.78453 12.2149 3.24671C12.8254 2.70873 13.3022 2.63199 13.3022 2.63199C13.3022 2.63199 13.1496 3.01617 13.7028 3.11222C13.7028 3.11222 14.0078 2.63199 13.8933 1.82501C13.8933 1.82501 13.8171 1.53688 13.1305 1.99796C12.4439 2.45904 11.8146 3.05446 10.9373 2.84339C10.9373 2.84339 11.0135 2.45905 11.7001 2.24782C12.3867 2.03642 13.283 0.8644 14.3894 1.03752C14.4425 1.04558 14.6944 1.80587 14.6944 2.84339C14.6944 3.88058 15.5336 4.5722 16.1822 4.5722C16.8304 4.5722 16.983 4.26475 16.983 4.26475L17.2118 4.34166C17.2118 4.34166 17.4789 2.42059 17.0211 1.80587C16.5636 1.19115 16.1822 1.03752 16.1822 1.03752C16.1822 1.03752 16.5006 0.30593 17.4789 0.26899C18.4574 0.23205 18.8903 0.806975 18.8903 1.53688C18.8903 2.26696 19.1192 4.14957 19.6912 4.5722C19.6912 4.5722 20.5686 4.68755 20.7974 4.34166C21.0043 4.02901 21.0866 3.19835 20.8749 2.1333C20.8226 1.86951 20.8873 1.5938 21.0563 1.38559C21.2905 1.09679 21.6722 0.788842 22.1515 0.979756C23.4579 1.50011 24.6911 2.71964 24.8408 2.95858C24.4815 2.69194 23.8174 2.27753 22.8953 2.12289C22.5981 2.07302 22.3232 2.05841 22.0796 2.06311C21.8361 2.06798 21.6481 2.28005 21.6631 2.52487C21.6859 2.89998 21.7091 3.27509 21.7321 3.65003C21.7321 3.65003 21.7321 4.62979 21.3507 5.05259C20.969 5.47505 20.416 5.87871 19.9965 5.60955C19.5769 5.34072 19.2717 4.72584 19.0618 4.66841C18.8521 4.61065 18.6422 4.62979 18.6422 4.62979C18.6422 4.62979 18.4134 4.91809 18.9093 5.53281C19.4052 6.14753 19.7104 6.18598 19.7104 6.18598C19.7104 6.18598 20.7974 5.99389 21.3123 5.99389C21.8273 5.99389 22.0561 6.08994 22.0561 6.08994C22.0561 6.08994 23.0098 8.011 22.6284 8.64503C22.6284 8.64503 21.7891 7.76132 21.6937 6.76225C21.6937 6.76225 21.3697 6.39738 21.2933 6.87761C21.217 7.35783 21.2743 7.64597 21.2743 7.64597C21.2743 7.64597 21.0073 7.85736 20.8546 7.43457C20.7021 7.0121 20.6831 6.85847 20.5496 6.7814C20.416 6.70466 20.3397 7.1508 20.3397 7.1508C20.3397 7.1508 19.9965 6.85846 19.8438 6.8007C19.6912 6.74311 19.7104 6.85846 19.7104 6.85846C19.7104 6.85846 19.9583 7.76132 19.8248 8.04945C19.6912 8.33759 19.6531 8.31844 19.1955 7.85736C18.7378 7.39628 18.9666 7.99186 18.9666 7.99186C18.9666 7.99186 19.1753 8.81798 19.3855 9.31734L19.5959 9.81688C19.5959 9.81688 19.9011 9.24044 19.9011 9.31734C19.9011 9.39425 20.0728 10.7775 19.6912 11.1232C19.3098 11.4691 18.8331 11.2577 18.8331 11.2577C18.8331 11.2577 18.5279 10.0857 18.7948 9.39425C18.7948 9.39425 17.8794 9.24044 17.1355 8.52984C16.3917 7.81891 15.6481 7.62682 15.6099 5.22537L15.4192 5.09087L15.362 4.74515C15.362 4.74515 14.7456 4.89878 14.3862 4.72583C14.027 4.55305 13.8361 4.26475 13.8743 4.13026C13.9125 3.99593 12.9589 4.24561 12.9589 4.24561C12.9589 4.24561 12.7301 4.70669 12.9589 4.80291C13.1878 4.89878 13.6836 4.76429 13.7981 4.99483C13.9125 5.22537 13.9721 7.62665 12.711 8.52984C12.711 8.52984 12.3677 8.51054 12.711 7.93427C13.0542 7.35783 13.6836 6.07063 13.4357 5.53281C13.4015 5.45876 13.3774 5.40302 13.3602 5.35986H12.978L12.7301 5.66731C12.7301 5.66731 12.5011 7.18488 11.8526 8.03014C11.2042 8.8754 10.9564 9.01007 10.9564 9.01007C10.9564 9.01007 10.4604 8.64503 10.9564 8.16481C11.4522 7.68458 12.4439 6.32031 12.3677 5.41746L12.2913 5.14863C12.2913 5.14863 11.929 5.03345 11.6239 5.66731C11.3187 6.30117 9.62131 9.25992 9.39242 9.5096C9.16355 9.75929 8.97288 9.79757 8.97288 9.79757C8.97288 9.79757 8.59139 9.70152 8.97288 9.04852ZM25.6799 8.18395C26.3663 9.31734 26.4047 9.79757 26.4047 9.79757C26.4047 9.79757 26.3093 9.70152 25.1458 8.76022C23.9825 7.81891 24.0968 5.95544 24.0968 5.95544C24.6119 6.20512 24.9933 7.05038 25.6799 8.18395ZM23.3042 6.30117C23.4079 6.91606 23.6201 7.39628 24.0968 8.2224C24.5735 9.04852 24.2303 9.18285 24.2303 9.18285C22.8381 8.27982 22.6666 5.91699 22.6666 5.91699C22.6666 5.91699 23.2005 5.68645 23.3042 6.30117ZM22.2468 4.11112C22.2087 3.90324 22.1475 3.68597 22.1228 3.33319C22.1031 3.04841 22.1168 2.81182 22.1325 2.65113C22.1325 2.65113 22.9129 2.62444 23.3632 2.74617C23.7171 2.84205 24.1833 3.11507 24.6309 3.91902C24.4275 3.97678 24.224 4.03438 24.0206 4.09197C24.0206 4.09197 24.1963 4.91809 24.385 5.09087C24.385 5.09087 24.116 5.11018 23.7728 4.80291C23.4294 4.49546 23.2195 4.72583 23.2195 4.72583C23.2195 4.72583 23.4865 5.03345 23.3817 5.24451C23.3817 5.24451 23.1815 4.91809 22.8763 5.11018C22.5712 5.30227 22.2468 5.37918 22.2468 5.37918C22.337 4.82776 22.301 4.40446 22.2468 4.11112ZM21.0263 11.6904C21.6366 11.7388 21.9416 11.2194 21.9416 11.2194C22.6666 11.2194 23.0861 10.9041 23.0861 10.9041C23.0861 10.9041 20.6831 9.2982 20.4542 8.71673C20.2253 8.13542 21.217 8.33272 21.217 8.33272L21.3313 8.64067L22.018 8.89891L22.1705 9.10242L23.315 9.16992L24.5735 10.6798L24.5921 10.6791L24.6089 10.7088C23.9243 10.7812 23.1635 10.9844 22.5119 11.4594C21.8788 11.9211 21.0141 12.7355 20.1865 13.5658C20.1833 13.563 19.9193 13.3277 19.7674 12.559C19.6149 11.7855 19.8438 11.9878 20.3017 11.9651C20.7594 11.9425 21.0263 11.6904 21.0263 11.6904ZM21.3507 10.2011C21.3053 10.1391 21.7081 10.2588 21.9775 10.5661C22.2468 10.8735 22.3423 10.9118 22.3423 10.9118C22.3423 10.9118 22.0371 11.0463 21.6937 10.9887C21.3507 10.931 21.3507 11.2193 21.3507 11.2193H20.9883C20.9883 11.2193 20.6831 10.8351 20.8356 10.47L21.4077 10.7102C21.4077 10.7102 21.5602 10.4894 21.3507 10.2011ZM22.1483 25.495C22.7909 25.5021 23.5879 25.5308 24.2937 25.5316C23.8131 26.1633 23.37 26.8202 22.9618 27.5014C22.6414 26.68 22.337 25.9442 22.1483 25.495ZM18.5852 13.6207C18.5852 13.6207 18.7948 13.3324 18.8139 12.6792C18.8331 12.0261 18.9666 12.1221 18.9666 12.1221C18.9666 12.1221 19.3098 12.3527 19.4434 13.0251C19.5401 13.5121 19.5269 13.7349 19.5339 13.8145C19.4685 13.7801 19.3077 13.7361 19.1001 13.7361C18.7948 13.7361 18.5852 13.6207 18.5852 13.6207ZM19.4675 14.2996C18.432 15.3732 17.6012 16.3006 17.6012 16.3006L17.5112 16.8726L17.4214 16.3006C17.4214 16.3006 16.4787 15.2483 15.3499 14.0878L15.5264 14.27L19.4675 14.2996ZM16.4872 12.985C16.6779 12.5221 16.945 12.5258 16.9891 12.5258V13.119C16.9891 13.119 17.1738 13.3516 16.8304 13.6014C16.4872 13.8513 16.099 13.6014 16.099 13.6014C16.099 13.6014 16.2964 13.4478 16.4872 12.985ZM18.2037 12.1173C18.2037 12.1173 18.3564 12.6949 18.2037 12.985C18.0511 13.275 17.6506 13.2364 17.6506 13.2364L17.4789 13.2382C17.4789 13.2382 17.2692 12.468 17.6506 12.3527C18.032 12.2375 18.2037 12.1173 18.2037 12.1173ZM17.6506 11.1615C17.4217 11.2001 17.4027 11.6034 17.4027 11.6034C17.0593 11.3346 16.6779 11.6034 16.6779 11.6034C15.5909 10.9696 16.3537 9.56703 16.43 9.31734C16.5062 9.06766 16.8686 9.0868 17.1548 9.4327C17.4407 9.77843 17.8794 9.72083 17.8794 9.72083C17.8794 9.72083 17.8794 11.1232 17.6506 11.1615ZM12.8254 17.8568C13.5119 18.3754 16.0867 18.6636 17.0386 18.6347C17.2703 18.6276 17.4184 18.5329 17.5112 18.3947C17.6044 18.5329 17.7523 18.6276 17.9838 18.6347C18.936 18.6636 21.5105 18.3754 22.1973 17.8568C22.8839 17.3381 22.3117 16.3295 22.4262 15.8108C22.5405 15.2919 23.9423 13.563 25.2012 13.5054C26.4599 13.4478 28.7199 14.3699 29.3493 16.4735C29.9786 18.5773 29.8069 20.7384 28.205 21.6317C26.6029 22.525 25.0868 22.035 24.8006 21.6317C24.5145 21.2284 23.313 21.2571 22.8553 21.8623C22.3975 22.4674 20.7954 23.5336 20.7954 24.1677C20.7954 24.1999 20.7958 24.2325 20.7961 24.2652C20.4649 24.1071 20.0655 24.0414 19.8694 24.487C19.5014 25.3244 18.8106 27.7284 18.9948 28.5374C19.1787 29.3464 20.3579 29.0992 20.6166 29.5195C22.3472 32.3313 20.5867 34.6112 18.8019 35.2629C18.7803 34.8273 18.6066 31.2956 18.6326 30.6609C18.6607 29.9802 18.8059 24.6089 18.8076 24.5547C18.8103 24.4543 18.8458 24.3609 18.9101 24.2854C20.1992 22.7666 21.0433 21.7792 21.1008 21.718C21.1633 21.6757 21.4414 21.604 21.6254 21.5568C21.8011 21.5115 21.9828 21.4647 22.1153 21.4161C22.299 21.3488 22.8881 20.9106 24.2267 19.8883C24.8396 19.4202 25.4732 18.9361 25.6451 18.8325C26.0878 18.5647 27.9793 17.5345 28.1438 17.4714L28.0735 17.2523L28.0189 17.0283C27.8374 17.0731 25.6776 18.2752 25.4095 18.4372C25.2165 18.5538 24.6297 19.0019 23.9503 19.5209C23.2255 20.0745 22.1298 20.9111 21.959 20.9829C21.8476 21.0237 21.6771 21.0675 21.512 21.1099C21.1228 21.2103 20.8973 21.2722 20.7883 21.3824C20.6981 21.473 19.5281 22.8481 18.5624 23.9855C18.431 24.1401 18.3557 24.3374 18.3499 24.5419C18.3485 24.5962 18.2033 29.9644 18.1753 30.6416C18.1465 31.3359 18.3389 35.1685 18.3469 35.3314L18.6416 35.3163C18.2673 35.4323 17.8969 35.4768 17.5619 35.4363C17.2452 35.398 16.9358 35.3388 16.6367 35.2627H16.6587C16.6639 33.6009 16.6956 29.1833 16.7791 28.7028C16.8696 28.1812 16.8154 25.7118 16.7879 24.6741C16.7831 24.4951 16.7261 24.3232 16.6226 24.1766C15.3965 22.4461 14.6222 21.5164 14.3214 21.4133C14.222 21.3794 14.1205 21.3486 14.0141 21.3161C13.6726 21.2121 13.2858 21.0944 12.7335 20.7947C12.4384 20.6347 11.4846 19.9817 10.4748 19.2907C8.48929 17.9313 7.26153 17.1008 6.95635 17.028L6.84988 17.4764C7.11763 17.55 8.98317 18.8268 10.2176 19.6719C11.2817 20.4003 12.2005 21.0293 12.5168 21.2009C13.1095 21.5224 13.5374 21.6527 13.8816 21.7573C13.983 21.7882 14.0793 21.8178 14.1703 21.8485C14.3419 21.9269 15.0657 22.7727 16.2498 24.4441C16.3002 24.5154 16.3282 24.5992 16.3302 24.6864C16.374 26.3324 16.3965 28.2308 16.3282 28.6232C16.228 29.1988 16.2047 34.2537 16.2015 35.1364C14.8409 34.6841 13.8036 33.7994 13.6779 32.4549C13.5129 30.6876 14.4691 29.5228 14.9086 29.4214C15.3482 29.3198 15.7584 28.2383 15.4195 27.6003C15.081 26.9622 14.7718 25.1291 14.2435 24.8882C14.2155 24.8753 14.1872 24.8625 14.1587 24.8501C14.2188 24.6393 14.2272 24.3997 14.2272 24.1677C14.2272 23.5336 12.625 22.4674 12.1675 21.8623C11.7097 21.2571 10.5082 21.2284 10.222 21.6317C9.93601 22.035 8.41981 22.525 6.81778 21.6317C5.21563 20.7384 5.04405 18.5773 5.67339 16.4735C6.30273 14.3699 8.56286 13.4478 9.82152 13.5054C11.0804 13.563 12.4821 15.2919 12.5966 15.8108C12.711 16.3295 12.1388 17.3381 12.8254 17.8568ZM23.2308 34.7188C22.0468 37.0059 19.9576 37.527 18.4569 37.9296C16.9563 38.3321 14.3995 37.4534 12.7766 35.7292C11.1536 34.0052 11.0368 31.4605 11.1742 30.2099C11.2363 29.6451 11.5617 28.8329 11.9337 28.0467C12.0872 27.9952 12.1976 27.8535 12.1227 27.6575C12.5222 26.8521 12.9336 26.1243 13.1094 25.7904C13.1782 25.6594 13.241 25.5605 13.3003 25.4861C13.5249 25.4683 13.6948 25.4119 13.8238 25.3281C13.8963 25.3521 13.9736 25.3828 14.0607 25.4089C14.4415 25.5222 15.0588 27.8585 15.0588 27.8585L15.1162 28.4888C15.1162 28.4888 12.8964 29.9495 13.2459 32.2576C13.5952 34.5655 15.1062 35.4941 17.3212 35.7493C21.0931 36.1842 21.8733 32.5956 21.7031 31.2488C21.5325 29.9023 20.9223 29.3267 20.4799 29.1549C20.0375 28.9832 19.4512 28.5344 19.4175 28.1262C19.384 27.718 19.8096 25.6164 20.0793 24.8118C20.2357 24.3445 20.5172 24.3744 20.8089 24.5366C20.8521 25.0202 21.037 25.45 21.7756 25.4885C22.2027 26.3337 22.7666 27.9678 23.2975 29.1722C23.8443 30.4123 24.2142 31.7033 23.7893 33.297C23.5786 33.7787 23.405 34.2306 23.2632 34.6515C23.2518 34.6741 23.2425 34.696 23.2308 34.7188ZM22.7469 38.5028C21.7037 38.3215 20.6106 38.1984 19.4775 38.1357C20.8209 37.7968 22.1215 37.0336 22.9648 35.662C22.6137 37.0555 22.6566 38.0842 22.7469 38.5028ZM10.7283 25.5313C11.3672 25.5306 12.08 25.5073 12.6867 25.4975C12.4694 26.0224 12.181 26.6714 11.9292 27.2779C11.7489 26.9931 11.5254 26.7686 11.297 26.482C11.0594 26.1836 10.9679 25.8174 10.7283 25.5313ZM10.0859 25.8626C10.3903 26.1075 10.4736 26.4994 10.6896 26.8131C10.942 27.1793 11.2894 27.405 11.4595 27.8379C11.4961 27.9309 11.5592 27.9922 11.6324 28.0286C11.5715 28.193 11.5158 28.3505 11.4743 28.488C11.2257 29.3111 10.3064 30.946 11.0989 33.2714C11.8912 35.597 13.6763 37.4392 15.8308 38.0903C15.8601 38.0991 15.8908 38.1071 15.9206 38.1157C14.5956 38.1723 13.3222 38.3099 12.1171 38.5265C12.3038 38.1204 12.436 35.4435 10.0054 31.2273C10.0054 31.2273 8.76341 26.3596 8.64034 25.4485C9.03382 25.4708 9.37073 25.4688 9.62131 25.4932C9.73447 25.5042 9.86209 25.5118 9.99583 25.5177C9.94492 25.6285 9.95794 25.7598 10.0859 25.8626ZM24.2108 31.2508C24.0441 30.4596 23.6374 29.2799 23.2147 28.1599C23.3097 28.1524 23.4024 28.104 23.4657 27.9964C23.9053 27.2493 24.3875 26.5327 24.9134 25.8446C25.0028 25.7276 24.9956 25.6119 24.9379 25.5217C25.1063 25.5157 25.263 25.5066 25.4014 25.4932C25.6134 25.4725 25.8871 25.4712 26.2047 25.4577C26.0738 26.3942 24.8408 31.2273 24.8408 31.2273C24.6352 31.5837 24.4504 31.9275 24.2807 32.2608C24.299 31.9318 24.2827 31.5921 24.2108 31.2508ZM29.086 27.0243C29.6629 26.8012 30.4635 26.376 30.6767 25.6847C30.9796 24.702 31.0915 23.8639 31.0356 22.8496C31.1723 22.6667 31.2987 22.4773 31.4197 22.2849C31.4195 22.3161 31.4193 22.3484 31.4193 22.3798C31.4063 25.2697 31.2228 26.8647 30.5622 28.0291C29.8758 29.2394 28.2737 30.4497 28.6742 29.5275C28.8718 29.0727 29.0134 28.0145 29.086 27.0243ZM29.0746 24.9169C29.0485 24.8727 28.9633 24.8371 28.8398 24.8104C29.2535 24.5922 29.6752 24.3032 30.0931 23.9083C30.151 23.8535 30.2055 23.7958 30.2617 23.7395C30.3942 24.4886 30.3952 25.7078 29.1348 26.0869C29.152 25.4811 29.1336 25.0156 29.0746 24.9169ZM31.3232 14.5427C31.9736 15.3982 32.321 16.8903 32.2551 18.4659C31.8144 19.1074 31.4608 20.2559 31.424 21.7726C31.298 22.007 31.1598 22.2298 31.0084 22.4374C30.8936 21.2299 30.1045 23.1302 30.1045 23.1302C30.1045 23.1302 30.1296 23.1973 30.1623 23.3112C30.1671 23.3278 30.1723 23.3484 30.1775 23.3669C29.4865 24.0036 28.7136 24.4555 28.0443 24.7554C27.3438 24.7693 26.511 24.9117 26.279 25.2242C24.8593 25.31 22.8098 25.0153 22.1401 24.9456C21.9084 24.9216 21.7524 24.8811 21.6436 24.8267L21.5304 24.7508C21.3755 24.6076 21.4022 24.3996 21.3677 24.1388C21.3103 23.7066 23.2557 22.1215 23.2557 22.1215L23.8279 21.8045C23.8279 21.8045 26.1705 23.4525 28.205 22.1504C30.2395 20.8484 30.2933 18.9806 29.7497 16.5889C29.2063 14.197 26.7911 13.3108 26.6601 13.2382C25.8089 12.7669 24.8579 12.9867 23.6564 13.7124C22.4549 14.4381 22.1115 15.5802 22.1401 16.0989C22.1687 16.6176 21.997 17.3957 21.6251 17.5975C21.2533 17.7992 19.0791 18.2314 18.2007 18.289C17.8474 18.3123 17.6954 18.1756 17.6434 17.9699C17.6557 17.8311 17.6496 17.6887 17.6349 17.5596C17.6651 17.326 17.7318 17.0767 17.7631 16.877C17.8489 16.3295 19.7371 14.6005 20.9386 13.2382C22.1401 11.8758 23.5419 10.7679 26.2193 11.0272C28.8968 11.2866 30.2933 13.1885 31.3232 14.5427ZM33.5375 18.1148C33.2805 17.837 32.9708 17.8218 32.668 18.0306C32.667 17.7318 32.6487 17.4331 32.6105 17.1364C32.3595 15.1811 31.0328 12.5154 28.6671 11.3778C28.6634 11.3573 28.6552 11.3363 28.6357 11.3168C28.599 11.2804 28.5712 11.2436 28.5457 11.1986C28.534 11.1785 28.5189 11.166 28.5027 11.157L28.4922 11.1331C28.4584 11.0838 28.4158 11.0462 28.3682 11.0149C28.3412 10.9852 28.3128 10.9567 28.2817 10.931C28.382 10.9523 28.482 10.9733 28.5882 10.9983C27.9208 10.3737 27.1786 9.58835 26.4475 8.62186C25.8696 7.85837 25.4047 7.12225 25.0315 6.45497C25.3747 6.64706 26.4047 6.64707 26.4047 6.64707C25.7944 6.18599 25.5272 4.99483 25.5272 4.99483C25.9469 5.18692 26.4047 5.07173 26.4047 5.07173C25.9849 4.61065 25.7561 3.76539 25.7561 3.76539C26.2138 3.80384 26.2138 3.5733 26.2138 3.5733C25.9088 3.38121 23.6964 1.38324 22.3995 0.730071C21.5784 0.316508 21.0096 0.869437 20.7027 1.33069C20.527 1.59498 20.479 1.92274 20.5771 2.22498C20.7801 2.85128 21.0518 4.03052 20.3017 4.22647C19.2717 4.49546 19.1192 2.65113 19.1572 1.65223C19.1955 0.652999 18.5852 -2.9135e-06 17.4789 -2.9135e-06C16.3727 -2.9135e-06 15.5717 1.34479 15.5717 1.34479C15.5717 1.34479 16.3347 1.45998 16.5636 1.61379C16.7924 1.76759 17.3264 2.99686 16.7541 3.76539C16.1822 4.53391 15.4956 3.80384 15.1902 3.45811C14.8851 3.11222 15.1522 1.0758 14.7708 0.652999C14.3894 0.230536 12.1388 1.22944 11.1088 2.11315C10.0791 2.99686 8.85848 3.15067 8.85848 3.15067C8.85848 3.65003 9.50682 3.61175 9.50682 3.61175C9.35433 4.14957 8.89657 4.76429 8.89657 4.76429L9.50682 4.95654C9.54499 5.648 8.93466 6.18598 8.93466 6.18598H9.62131C9.48325 6.74277 9.27815 7.38134 8.9682 8.06121C8.36673 9.38082 7.60144 10.3492 6.98935 10.9983C7.13541 11.0022 7.2726 10.9986 7.40349 10.9909C4.37598 11.7489 2.69828 14.9081 2.4121 17.1364C2.36749 17.4835 2.35154 17.8328 2.35761 18.182C2.0011 17.8257 1.61672 17.7815 1.30854 18.1148C0.507489 18.9806 0.278618 28.7661 1.30854 30.2417C2.20947 31.5327 5.81228 36.2917 7.31884 37.8831C7.02713 37.8164 6.71816 37.7804 6.39811 37.7804C4.61038 37.7804 3.15584 38.8982 3.15584 40.2721C3.15584 40.3338 3.16126 40.3942 3.16711 40.4548L3.16691 40.4555L3.16731 40.4562C3.19836 40.7782 3.30855 41.0833 3.48488 41.3595L3.48566 41.3617L3.48748 41.3642C3.56973 41.4922 3.66634 41.6137 3.77463 41.7284L5.8583 44.3716C6.59021 45.1056 7.73773 45.2087 8.58695 44.617C10.4014 43.3627 13.0762 42.5037 16.108 42.3374C16.979 42.2897 18.0978 42.3039 18.9034 42.3374C21.9371 42.4635 24.6101 43.3627 26.4245 44.617C27.2737 45.2087 28.4213 45.1056 29.1531 44.3716L31.2366 41.7284C31.3452 41.6137 31.4418 41.4922 31.5239 41.3642L31.5259 41.3617L31.5265 41.3595C31.7029 41.0833 31.8131 40.7782 31.8442 40.4562L31.8446 40.4555L31.8444 40.4548C31.8501 40.3942 31.8556 40.3338 31.8556 40.2721C31.8556 38.8982 30.401 37.7804 28.6132 37.7804C28.2113 37.7804 27.8266 37.8371 27.4717 37.9405C28.9423 36.4124 32.625 31.5494 33.5375 30.2417C34.5675 28.7661 34.3387 18.9806 33.5375 18.1148Z" fill="#231F20"/>
<path d="M10.1648 24.3117C13.5406 24.254 11.8241 23.5912 11.8241 23.5912C11.8241 23.5912 11.0517 22.6404 10.7655 22.7556C10.4795 22.8709 10.6797 23.3031 9.70705 23.3607C8.73444 23.4185 6.56558 24.0846 5.0154 21.6028C3.46521 19.1213 3.95696 18.7789 3.98548 18.433C4.01413 18.0873 3.8139 16.877 3.8139 16.877C3.8139 16.9633 2.84121 19.4128 4.12853 21.2284C5.41586 23.0437 6.78912 24.3693 10.1648 24.3117Z" fill="#231F20"/>
<path d="M23.6277 12.1172C22.14 12.5283 19.6797 16.4159 19.222 16.6465C18.7643 16.877 18.5641 17.1075 18.7643 17.2227C18.9646 17.3381 19.9788 17.0787 20.4872 17.0787C20.9958 17.0787 21.339 16.9059 21.3677 16.6465C21.3962 16.3872 21.196 15.263 21.8253 14.4853C22.4549 13.7072 23.4559 12.1172 25.6587 12.1172H26.7746C26.7746 12.1172 25.4872 11.6034 23.6277 12.1172Z" fill="#231F20"/>
<path d="M13.1972 14.4853C13.8266 15.263 13.6264 16.3872 13.6551 16.6465C13.6836 16.9059 14.027 17.0787 14.5354 17.0787C15.044 17.0787 16.0581 17.3381 16.2583 17.2227C16.4585 17.1075 16.2583 16.877 15.8006 16.6465C15.3429 16.4159 12.8826 12.5283 11.395 12.1172C9.53547 11.6034 8.24803 12.1172 8.24803 12.1172H9.36376C11.5666 12.1172 12.5679 13.7072 13.1972 14.4853Z" fill="#231F20"/>
<path d="M30.0073 21.6028C28.4569 24.0846 26.2883 23.4185 25.3155 23.3607C24.3428 23.3031 24.5432 22.8709 24.257 22.7556C23.9709 22.6404 23.1985 23.5912 23.1985 23.5912C23.1985 23.5912 21.4822 24.254 24.8579 24.3117C28.2337 24.3693 29.6067 23.0437 30.8941 21.2284C32.1815 19.4128 31.2088 16.9633 31.2088 16.877C31.2088 16.877 31.0084 18.0873 31.0371 18.433C31.0658 18.7789 31.5575 19.1213 30.0073 21.6028Z" fill="#231F20"/>
<path d="M13.0506 34.0717C11.5433 31.7465 12.8824 30.0674 13.2819 29.2226C13.6816 28.3779 13.9693 28.7207 14.1688 28.5097C14.3682 28.2984 13.8551 27.2485 13.8551 27.2485C13.8551 27.2485 13.9233 25.467 12.6552 28.4531C11.3869 31.439 11.9949 33.1668 13.0421 35.0046C14.0893 36.842 16.4817 36.907 16.5536 36.9398C16.5536 36.9398 15.6176 36.301 15.3192 36.1951C15.0208 36.0891 14.5577 36.3971 13.0506 34.0717Z" fill="#231F20"/>
<path d="M20.7638 25.7195C20.5952 25.8542 20.4449 26.8564 20.261 27.3096C20.0773 27.7626 20.0971 28.1344 20.3028 28.2585C20.5087 28.3826 21.5175 28.6316 21.9381 29.4883C22.3587 30.3451 23.3215 31.842 22.5252 33.8048C22.3357 34.272 22.1218 34.7989 22.1218 34.7989C22.1218 34.7989 23.0153 33.8472 23.2595 31.9948C23.4549 30.513 21.1051 26.842 21.0785 26.3465C21.052 25.851 20.9323 25.5848 20.7638 25.7195Z" fill="#231F20"/>
<path d="M8.19789 16.0163C8.32824 16.1264 11.4139 18.718 13.2326 19.3928C14.7804 19.9671 16.8421 21.9089 17.2392 22.2923C17.3157 22.3663 17.4144 22.4034 17.5132 22.4034C17.6102 22.4034 17.7073 22.3677 17.7834 22.296C18.954 21.195 19.6176 20.6241 19.7741 20.5317C20.117 20.4787 21.225 20.003 21.6847 19.7259C22.2083 19.4111 26.8268 16.4623 27.023 16.3368L26.7779 15.9475C26.7299 15.978 21.9683 19.0185 21.4502 19.3302C20.9506 19.6307 19.8806 20.0569 19.7206 20.0757C19.6052 20.0757 19.475 20.0757 17.5139 21.919C16.8888 21.3197 14.946 19.537 13.3909 18.9601C11.6467 18.3128 8.52281 15.6892 8.49155 15.6628L8.19789 16.0163Z" fill="#231F20"/>
<path d="M8.03218 42.6249C8.04271 42.6814 8.04356 42.728 8.03498 42.7636C8.02013 42.8291 7.9776 42.8808 7.90702 42.9187C7.83833 42.9558 7.76813 42.9602 7.69631 42.9318C7.62468 42.9035 7.56107 42.8363 7.50624 42.7299C7.45155 42.6237 7.43051 42.5292 7.44438 42.4471C7.45798 42.365 7.50299 42.303 7.57865 42.2619C7.6532 42.2217 7.71974 42.2125 7.77804 42.2343C7.81066 42.2468 7.84496 42.2723 7.8809 42.311C7.96557 42.2667 8.00807 42.2447 8.09325 42.2013C8.06147 42.1425 8.00991 42.0943 7.93788 42.0574C7.80797 41.9914 7.65647 42.0038 7.48554 42.096C7.35778 42.165 7.27294 42.2624 7.23171 42.3861C7.18419 42.5284 7.20502 42.6816 7.29214 42.8465C7.37268 42.9986 7.47642 43.0955 7.60131 43.1383C7.72613 43.181 7.85721 43.1642 7.99615 43.0893C8.10836 43.0289 8.18474 42.9476 8.22556 42.8442C8.26658 42.7407 8.2718 42.6318 8.24001 42.5174C8.15666 42.5599 8.11519 42.5814 8.03218 42.6249Z" fill="#231F20"/>
<path d="M8.69198 42.4845C8.64698 42.3841 8.62459 42.3339 8.57947 42.2337C8.77663 42.138 8.87553 42.0916 9.07453 42.0016C9.04568 41.9329 9.03136 41.8987 9.00257 41.8302C8.80215 41.921 8.7022 41.9678 8.5034 42.0644C8.46636 41.9815 8.44773 41.9402 8.41069 41.8574C8.62927 41.7513 8.73933 41.6999 8.96006 41.6005C8.93096 41.5305 8.9163 41.4955 8.88713 41.4255C8.57848 41.5645 8.42534 41.6372 8.12072 41.789C8.29979 42.1771 8.3892 42.3712 8.56826 42.759C8.86805 42.6097 9.01919 42.5383 9.32307 42.4018C9.29358 42.3309 9.2788 42.2952 9.24929 42.2243C9.02537 42.3246 8.91382 42.3769 8.69198 42.4845Z" fill="#231F20"/>
<path d="M9.73447 41.0655C9.83801 41.3458 9.8897 41.4858 9.99343 41.7659C9.72614 41.5512 9.58991 41.4458 9.31265 41.2394C9.21974 41.2789 9.17343 41.2989 9.08085 41.3393C9.24188 41.7359 9.32222 41.9342 9.48325 42.3309C9.56159 42.2963 9.60078 42.2795 9.67925 42.246C9.56791 41.9633 9.51224 41.8221 9.40068 41.5395C9.68218 41.7497 9.82042 41.8568 10.0914 42.0756C10.1763 42.0417 10.2187 42.0249 10.3039 41.9919C10.1591 41.5887 10.0869 41.387 9.94219 40.9837C9.85896 41.016 9.81742 41.0324 9.73447 41.0655Z" fill="#231F20"/>
<path d="M10.935 40.6269C10.5841 40.7433 10.4097 40.8056 10.0628 40.9375C10.088 41.0091 10.1006 41.0448 10.1257 41.1165C10.2534 41.068 10.3174 41.0442 10.4455 40.9978C10.5577 41.3321 10.6137 41.4993 10.7258 41.8337C10.8121 41.8025 10.8552 41.787 10.9417 41.7569C10.8329 41.4213 10.7787 41.2535 10.67 40.9177C10.798 40.8731 10.8623 40.8512 10.9907 40.8086C10.9683 40.7359 10.9573 40.6996 10.935 40.6269Z" fill="#231F20"/>
<path d="M11.768 40.8454C11.7473 40.8635 11.7131 40.8798 11.6655 40.8941C11.5694 40.9228 11.5215 40.9374 11.4258 40.9671C11.3937 40.8565 11.3778 40.8011 11.3457 40.6902C11.4452 40.6592 11.495 40.644 11.5946 40.6143C11.641 40.6004 11.6776 40.5962 11.7042 40.6017C11.7514 40.6112 11.7833 40.6472 11.8 40.71C11.8157 40.7683 11.8049 40.8133 11.768 40.8454ZM12.1642 41.281C12.156 41.265 12.1456 41.2332 12.1334 41.1859C12.1261 41.158 12.1225 41.144 12.1154 41.1161C12.0965 41.0433 12.0722 40.992 12.0426 40.9623C12.013 40.9324 11.9711 40.915 11.9166 40.9099C11.9703 40.8733 12.0038 40.8276 12.017 40.7728C12.0306 40.7179 12.031 40.6659 12.0182 40.6165C12.0078 40.5755 11.9918 40.541 11.97 40.5126C11.9483 40.4845 11.9226 40.4605 11.8928 40.4407C11.8567 40.4166 11.8162 40.4021 11.7716 40.3972C11.7271 40.3924 11.6672 40.3999 11.5923 40.4208C11.3838 40.4823 11.2798 40.5146 11.0724 40.5819C11.1956 40.9928 11.2571 41.1981 11.3807 41.6091C11.465 41.5816 11.5071 41.5683 11.5919 41.5417C11.5451 41.38 11.5217 41.2993 11.475 41.1377C11.5611 41.1108 11.6042 41.0976 11.6906 41.0715C11.7523 41.0531 11.7973 41.0517 11.8258 41.0672C11.8541 41.0826 11.8775 41.1233 11.8964 41.1893C11.9073 41.2274 11.9128 41.2465 11.9238 41.285C11.9326 41.3155 11.9434 41.3444 11.957 41.3717C11.9635 41.3849 11.9732 41.4019 11.9861 41.423C12.0822 41.3951 12.1302 41.3815 12.2264 41.355L12.2197 41.329C12.1953 41.3219 12.1769 41.3058 12.1642 41.281Z" fill="#231F20"/>
<path d="M12.6112 40.8341C12.6284 40.6556 12.6376 40.5663 12.657 40.3875C12.7492 40.5393 12.7949 40.6152 12.8851 40.7675C12.7755 40.7933 12.7206 40.8066 12.6112 40.8341ZM12.4754 40.1796C12.4152 40.6373 12.3888 40.8661 12.3441 41.323C12.4354 41.2981 12.4811 41.286 12.5726 41.2625C12.5804 41.1695 12.5845 41.1228 12.5929 41.0296C12.7486 40.99 12.8268 40.971 12.9831 40.9345C13.0297 41.0143 13.0531 41.0543 13.0991 41.1344C13.1943 41.1125 13.242 41.1018 13.3374 41.0811C13.1038 40.6922 12.9835 40.499 12.7358 40.1163C12.6316 40.141 12.5795 40.1536 12.4754 40.1796Z" fill="#231F20"/>
<path d="M13.6573 40.8177C13.5936 40.4708 13.5619 40.2975 13.4982 39.9507C13.4057 39.969 13.3594 39.9785 13.267 39.9978C13.3489 40.4197 13.3897 40.6308 13.4717 41.0524C13.7703 40.9899 13.9201 40.9614 14.2203 40.9104C14.2083 40.834 14.2023 40.7959 14.1902 40.7194C13.9766 40.7558 13.8701 40.7755 13.6573 40.8177Z" fill="#231F20"/>
<path d="M15.3139 40.5475C15.289 40.5631 15.2535 40.5737 15.207 40.5792C15.1027 40.5915 15.0505 40.598 14.9463 40.6118C14.9325 40.4979 14.9255 40.4412 14.9116 40.3274C15.0185 40.3132 15.072 40.3065 15.1792 40.2938C15.226 40.2886 15.263 40.2906 15.2899 40.2993C15.3384 40.3149 15.3652 40.3507 15.3709 40.4063C15.3775 40.4721 15.3585 40.5189 15.3139 40.5475ZM14.8611 39.9153C14.9576 39.9025 15.0058 39.8964 15.1023 39.8847C15.1553 39.8785 15.201 39.8782 15.235 39.8865C15.2755 39.8962 15.2995 39.9286 15.3045 39.9783C15.3092 40.0233 15.2975 40.0563 15.2697 40.0773C15.2418 40.0982 15.204 40.1116 15.1563 40.1173C15.0498 40.1299 14.9963 40.1366 14.89 40.1506C14.8783 40.0565 14.8726 40.0094 14.8611 39.9153ZM15.4089 40.1636C15.4435 40.1411 15.4697 40.1182 15.4864 40.0938C15.5166 40.0506 15.5287 39.9966 15.5227 39.9311C15.5167 39.8678 15.4951 39.8148 15.4564 39.7728C15.3927 39.7046 15.2922 39.6766 15.1555 39.6905C14.9395 39.7157 14.8314 39.7296 14.6157 39.7605C14.6723 40.1869 14.7004 40.3999 14.7568 40.8264C14.9483 40.7989 15.0441 40.7864 15.2362 40.7638C15.2904 40.7572 15.34 40.7468 15.3854 40.732C15.4305 40.7171 15.4689 40.6949 15.5007 40.6654C15.5287 40.6394 15.5512 40.6088 15.5686 40.5732C15.5957 40.5196 15.6066 40.4613 15.6007 40.3979C15.5951 40.3363 15.5764 40.285 15.5442 40.2449C15.5121 40.2046 15.4667 40.1776 15.4089 40.1636Z" fill="#231F20"/>
<path d="M16.0852 40.274C16.13 40.1007 16.153 40.0144 16.2 39.8413C16.2667 40.0067 16.2995 40.0895 16.364 40.2551C16.2525 40.2619 16.1967 40.2658 16.0852 40.274ZM16.0546 39.605C15.9238 40.0461 15.8621 40.2671 15.7464 40.7099C15.8398 40.7013 15.8865 40.6973 15.9798 40.6897C16.0023 40.5992 16.0135 40.5539 16.0365 40.4634C16.1953 40.4511 16.2748 40.4459 16.4339 40.4367C16.4674 40.5233 16.4837 40.5668 16.5166 40.6535C16.6134 40.6482 16.6619 40.6459 16.7588 40.6418C16.5907 40.2182 16.5029 40.0073 16.32 39.5874C16.2138 39.5938 16.1608 39.5973 16.0546 39.605Z" fill="#231F20"/>
<path d="M17.5484 39.5484C17.5491 39.8485 17.5494 39.9986 17.5501 40.2987C17.3769 39.9991 17.2873 39.8502 17.1023 39.5541C17.0038 39.5565 16.9545 39.558 16.8561 39.5614C16.8703 39.9917 16.8773 40.2067 16.8915 40.6368C16.9748 40.6338 17.0165 40.6325 17.0998 40.6306C17.0927 40.3252 17.0892 40.1726 17.0821 39.8673C17.2697 40.1682 17.3604 40.3197 17.5357 40.6242C17.6251 40.6239 17.6697 40.6241 17.7594 40.6247C17.7624 40.1945 17.7641 39.9795 17.7671 39.5489C17.6796 39.5483 17.6357 39.5481 17.5484 39.5484Z" fill="#231F20"/>
<path d="M18.6559 39.5746C18.4742 39.743 18.385 39.8283 18.21 40.0008C18.2147 39.8233 18.2172 39.7348 18.222 39.5575C18.1295 39.5546 18.0835 39.5535 17.991 39.5519C17.9836 39.9821 17.98 40.1972 17.9726 40.6276C18.0606 40.6293 18.1047 40.6304 18.1927 40.6328C18.1967 40.4891 18.1985 40.417 18.2025 40.2733C18.2475 40.2307 18.27 40.2093 18.3155 40.167C18.4442 40.3594 18.5072 40.4562 18.6301 40.6506C18.7451 40.6565 18.8024 40.6597 18.9173 40.6672C18.7481 40.4023 18.6609 40.2708 18.4809 40.0095C18.6686 39.8403 18.7641 39.7566 18.9588 39.592C18.8376 39.5842 18.7771 39.5809 18.6559 39.5746Z" fill="#231F20"/>
<path d="M20.1667 40.5272C20.1068 40.5858 20.0325 40.6098 19.9438 40.5994C19.8551 40.589 19.7874 40.5486 19.7406 40.4776C19.6939 40.407 19.6757 40.3111 19.6869 40.1905C19.6982 40.07 19.7343 39.9798 19.7951 39.9202C19.8561 39.8605 19.9331 39.8359 20.0248 39.8466C20.1167 39.8572 20.186 39.8988 20.2322 39.9713C20.2782 40.0434 20.2935 40.1396 20.279 40.2593C20.2643 40.3794 20.2267 40.4688 20.1667 40.5272ZM20.0451 39.6571C19.8853 39.6385 19.7578 39.673 19.6666 39.7426C19.5514 39.8308 19.4764 39.9724 19.46 40.1689C19.4439 40.3613 19.4914 40.5136 19.5861 40.6263C19.6594 40.7139 19.7713 40.7708 19.9235 40.7886C20.0755 40.8062 20.1968 40.7765 20.2872 40.7078C20.4032 40.6197 20.4817 40.4819 20.5069 40.2904C20.5326 40.0952 20.4899 39.9399 20.3965 39.8275C20.3225 39.7385 20.2053 39.6757 20.0451 39.6571Z" fill="#231F20"/>
<path d="M20.6059 40.8496C20.6941 40.8628 20.7381 40.8697 20.8261 40.884C20.8529 40.706 20.8663 40.6169 20.8931 40.4385C21.085 40.4697 21.1808 40.4864 21.372 40.5221C21.3849 40.4486 21.3912 40.4118 21.4039 40.3381C21.211 40.3022 21.1145 40.2854 20.9208 40.2538C20.9354 40.1561 20.9428 40.1072 20.9576 40.0094C21.1808 40.0456 21.2922 40.0652 21.5147 40.1076C21.5277 40.0332 21.5344 39.9959 21.5474 39.9215C21.231 39.8613 21.0725 39.8342 20.7544 39.7864C20.6951 40.2116 20.6652 40.4244 20.6059 40.8496Z" fill="#231F20"/>
<path d="M22.8006 40.1975C22.7321 40.4892 22.6979 40.635 22.6292 40.9264C22.529 40.5921 22.476 40.4253 22.3635 40.0918C22.2668 40.0695 22.2185 40.0586 22.1216 40.0372C22.0361 40.4585 21.9935 40.6691 21.9081 41.0902C21.9901 41.108 22.0313 41.1173 22.1131 41.136C22.1765 40.838 22.2082 40.6889 22.2717 40.3906C22.3855 40.7295 22.4392 40.8993 22.5402 41.2391C22.6277 41.2611 22.6714 41.2726 22.7587 41.2955C22.8609 40.8786 22.9121 40.6701 23.0143 40.253C22.9288 40.2305 22.8861 40.2194 22.8006 40.1975Z" fill="#231F20"/>
<path d="M23.2103 40.3059C23.1043 40.7219 23.0515 40.93 22.9454 41.3459C23.0321 41.3699 23.0753 41.382 23.162 41.4069C23.2722 40.992 23.3272 40.7848 23.4374 40.3699C23.3465 40.3438 23.3012 40.3309 23.2103 40.3059Z" fill="#231F20"/>
<path d="M23.9609 41.2368C24.0583 41.2684 24.1068 41.2846 24.2038 41.3176C24.172 41.3805 24.1261 41.4247 24.0666 41.4502C24.0075 41.4759 23.9414 41.4769 23.8684 41.4531C23.7941 41.4289 23.7354 41.3815 23.6917 41.3107C23.6486 41.2398 23.6442 41.1412 23.6804 41.0145C23.7162 40.8887 23.7709 40.8029 23.8446 40.7578C23.9184 40.7128 23.999 40.7042 24.0858 40.7322C24.1308 40.747 24.1698 40.768 24.202 40.7955C24.2595 40.8452 24.2858 40.908 24.2808 40.9836C24.3683 41.0131 24.412 41.0282 24.4994 41.0588C24.5192 40.9564 24.4985 40.8578 24.4364 40.7636C24.3743 40.6692 24.2738 40.5989 24.136 40.554C23.9768 40.5027 23.8336 40.5131 23.7089 40.5848C23.5839 40.6565 23.4995 40.7768 23.4539 40.9443C23.4085 41.1096 23.4214 41.2544 23.4849 41.3771C23.5469 41.4969 23.6451 41.5805 23.7817 41.6245C23.8648 41.6513 23.9399 41.657 24.0075 41.6416C24.0468 41.6325 24.0948 41.6112 24.1518 41.5771C24.1443 41.6312 24.1406 41.6582 24.1331 41.7121C24.1902 41.7316 24.2187 41.7415 24.2753 41.7613C24.3463 41.5425 24.3818 41.4332 24.4529 41.2145C24.2772 41.1528 24.1892 41.1231 24.0125 41.0655C23.9918 41.1342 23.9816 41.1684 23.9609 41.2368Z" fill="#231F20"/>
<path d="M24.9846 41.0811C25.2097 41.1656 25.3217 41.2094 25.545 41.3006C25.5717 41.2295 25.585 41.1939 25.6119 41.123C25.3 40.9956 25.1431 40.9354 24.8278 40.8208C24.6912 41.2272 24.6229 41.4304 24.4865 41.8366C24.7969 41.9492 24.9514 42.009 25.2585 42.1347C25.2858 42.0627 25.2993 42.0266 25.3267 41.9546C25.1005 41.8621 24.9868 41.8174 24.7586 41.7318C24.7948 41.6277 24.8128 41.5756 24.8489 41.4715C25.0518 41.5476 25.1528 41.5872 25.354 41.6687C25.3802 41.5991 25.3932 41.5642 25.4195 41.4946C25.2163 41.4124 25.1145 41.3726 24.9099 41.2958C24.9399 41.2101 24.9548 41.1671 24.9846 41.0811Z" fill="#231F20"/>
<path d="M26.1985 41.8717C26.171 41.872 26.1343 41.8619 26.0881 41.8412C25.9954 41.7996 25.9489 41.7793 25.8559 41.739C25.8988 41.6322 25.9201 41.5788 25.9628 41.472C26.0596 41.514 26.1078 41.5351 26.2041 41.5783C26.2488 41.5983 26.2802 41.6194 26.2975 41.6413C26.3288 41.6801 26.3315 41.7291 26.3063 41.7887C26.2828 41.8439 26.247 41.8717 26.1985 41.8717ZM26.4382 41.9811C26.4824 41.9479 26.5147 41.908 26.535 41.8614C26.5519 41.8229 26.5604 41.7855 26.5607 41.7492C26.561 41.7131 26.5555 41.6775 26.5444 41.6423C26.5307 41.5996 26.5077 41.5615 26.4759 41.5281C26.4439 41.4949 26.3923 41.4611 26.321 41.4274C26.1198 41.3367 26.0186 41.2927 25.8159 41.2074C25.6607 41.6064 25.583 41.806 25.4279 42.2049C25.5105 42.2397 25.5517 42.2571 25.6339 42.2928C25.6964 42.1369 25.7276 42.0591 25.7899 41.9034C25.8738 41.9395 25.9156 41.9579 25.9991 41.995C26.0588 42.0217 26.0946 42.0507 26.1076 42.0814C26.1203 42.1121 26.1138 42.1591 26.0883 42.2224C26.0735 42.2594 26.066 42.2778 26.0511 42.3146C26.0391 42.344 26.0301 42.3735 26.024 42.4036C26.021 42.418 26.0183 42.4376 26.0153 42.4625C26.1076 42.5048 26.1536 42.5263 26.2457 42.5697L26.2563 42.5452C26.2413 42.5235 26.237 42.4988 26.2422 42.4709C26.2455 42.4535 26.2568 42.422 26.2762 42.3774C26.2877 42.351 26.2935 42.338 26.3048 42.3114C26.3347 42.2427 26.347 42.187 26.342 42.1443C26.3372 42.1018 26.315 42.0604 26.2753 42.0202C26.34 42.0278 26.3942 42.0149 26.4382 41.9811Z" fill="#231F20"/>
<path d="M26.8481 41.6733C26.6734 42.0637 26.5862 42.2588 26.4115 42.649C26.494 42.6888 26.5352 42.709 26.6176 42.7502C26.7961 42.3618 26.8856 42.1677 27.0643 41.7794C26.9779 41.7365 26.9348 41.7153 26.8481 41.6733Z" fill="#231F20"/>
<path d="M27.5109 42.7614C27.4089 42.7058 27.358 42.6783 27.2555 42.6243C27.3813 42.5006 27.4447 42.4392 27.5724 42.3171C27.5487 42.4952 27.5364 42.5839 27.5109 42.7614ZM26.7406 42.8118C26.8268 42.8555 26.8699 42.8774 26.9559 42.9223C27.0205 42.857 27.0531 42.8244 27.1183 42.7596C27.2643 42.8363 27.3372 42.8754 27.482 42.9552C27.4682 43.0478 27.4612 43.0939 27.4469 43.1862C27.5349 43.2352 27.5789 43.2601 27.6666 43.3101C27.7291 42.8547 27.7567 42.6258 27.8046 42.1656C27.7077 42.1128 27.6592 42.0865 27.5619 42.0352C27.2268 42.3406 27.0626 42.4961 26.7406 42.8118Z" fill="#231F20"/>
<path d="M10.1648 24.3117C6.78912 24.3693 5.41586 23.0437 4.12853 21.2284C2.84121 19.4128 3.8139 16.9633 3.8139 16.877C3.8139 16.877 4.01413 18.0873 3.98548 18.433C3.95696 18.7789 3.46521 19.1213 5.0154 21.6028C6.56559 24.0846 8.73444 23.4185 9.70705 23.3607C10.6797 23.3031 10.4795 22.8709 10.7655 22.7555C11.0517 22.6404 11.8241 23.5912 11.8241 23.5912C11.8241 23.5912 13.5406 24.254 10.1648 24.3117ZM11.395 12.1172C12.8826 12.5283 15.3429 16.4159 15.8006 16.6465C16.2583 16.877 16.4585 17.1075 16.2583 17.2227C16.0581 17.3381 15.044 17.0787 14.5354 17.0787C14.027 17.0787 13.6836 16.9059 13.6551 16.6465C13.6264 16.3872 13.8266 15.263 13.1972 14.4853C12.5679 13.7072 11.5666 12.1172 9.36376 12.1172H8.24803C8.24803 12.1172 9.53547 11.6034 11.395 12.1172ZM13.6551 24.1388C13.7121 23.7066 11.7668 22.1215 11.7668 22.1215L11.1946 21.8045C11.1946 21.8045 8.85209 23.4525 6.81778 22.1504C4.78326 20.8484 4.72942 18.9806 5.27292 16.5889C5.81651 14.197 8.23161 13.3107 8.36243 13.2382C9.2138 12.7669 10.1648 12.9867 11.3664 13.7124C12.5679 14.4381 12.9112 15.5802 12.8826 16.0989C12.8539 16.6176 13.0256 17.3957 13.3975 17.5975C13.7694 17.7992 15.9436 18.2314 16.8221 18.289C17.7004 18.3467 17.3454 17.4244 17.2597 16.877C17.1738 16.3294 15.2857 14.6005 14.0842 13.2382C12.8826 11.8758 11.4808 10.7679 8.80325 11.0272C6.12573 11.2866 4.72942 13.1885 3.69943 14.5427C2.66951 15.8972 2.39648 18.8474 3.32742 21.1995C4.25864 23.5514 6.61743 24.7151 7.86112 25.0897C9.10462 25.4643 12.053 25.0321 12.8826 24.9456C13.7121 24.8593 13.5977 24.571 13.6551 24.1388Z" fill="#D8AF7F"/>
<path d="M30.8941 21.2284C29.6067 23.0437 28.2337 24.3693 24.8579 24.3117C21.4822 24.254 23.1985 23.5912 23.1985 23.5912C23.1985 23.5912 23.9709 22.6404 24.257 22.7555C24.5432 22.8709 24.3428 23.3031 25.3155 23.3607C26.2883 23.4185 28.4569 24.0846 30.0073 21.6028C31.5575 19.1213 31.0658 18.7789 31.0371 18.433C31.0084 18.0873 31.2088 16.877 31.2088 16.877C31.2088 16.9633 32.1815 19.4128 30.8941 21.2284ZM25.6587 12.1172C23.4559 12.1172 22.4549 13.7072 21.8253 14.4853C21.196 15.263 21.3962 16.3872 21.3677 16.6465C21.339 16.9059 20.9958 17.0787 20.4872 17.0787C19.9788 17.0787 18.9646 17.3381 18.7643 17.2227C18.5641 17.1075 18.7643 16.877 19.222 16.6465C19.6797 16.4159 22.14 12.5283 23.6277 12.1172C25.4872 11.6034 26.7746 12.1172 26.7746 12.1172H25.6587ZM31.3232 14.5427C30.2933 13.1885 28.8968 11.2866 26.2193 11.0272C23.5419 10.7679 22.1401 11.8758 20.9386 13.2382C19.7371 14.6005 17.8489 16.3294 17.7631 16.877C17.6771 17.4244 17.3224 18.3467 18.2007 18.289C19.0791 18.2314 21.2533 17.7992 21.6251 17.5975C21.997 17.3957 22.1687 16.6176 22.1401 16.0989C22.1115 15.5802 22.4549 14.4381 23.6564 13.7124C24.8579 12.9867 25.8089 12.7669 26.6601 13.2382C26.7911 13.3107 29.2063 14.197 29.7497 16.5889C30.2933 18.9806 30.2395 20.8484 28.205 22.1504C26.1705 23.4525 23.8279 21.8045 23.8279 21.8045L23.2557 22.1215C23.2557 22.1215 21.3103 23.7066 21.3677 24.1388C21.4249 24.571 21.3103 24.8593 22.1401 24.9456C22.9696 25.0321 25.9179 25.4643 27.1616 25.0897C28.4052 24.7151 30.7641 23.5514 31.6951 21.1995C32.626 18.8474 32.353 15.8972 31.3232 14.5427Z" fill="#D8AF7F"/>
<path d="M23.2595 31.9948C23.0153 33.8472 22.1218 34.7989 22.1218 34.7989C22.1218 34.7989 22.3357 34.272 22.5252 33.8048C23.3215 31.842 22.3587 30.3451 21.9381 29.4882C21.5175 28.6316 20.5087 28.3826 20.3028 28.2585C20.0971 28.1344 20.0773 27.7626 20.261 27.3096C20.4449 26.8564 20.5952 25.8542 20.7638 25.7195C20.9323 25.5848 21.052 25.851 21.0785 26.3465C21.1051 26.842 23.4549 30.513 23.2595 31.9948ZM13.0421 35.0046C11.9949 33.1668 11.3869 31.439 12.6552 28.4531C13.9233 25.467 13.8551 27.2485 13.8551 27.2485C13.8551 27.2485 14.3682 28.2984 14.1688 28.5097C13.9693 28.7207 13.6816 28.3779 13.2819 29.2226C12.8824 30.0674 11.5433 31.7465 13.0506 34.0717C14.5577 36.3971 15.0208 36.0891 15.3192 36.1951C15.6176 36.301 16.5536 36.9398 16.5536 36.9398C16.4817 36.907 14.0893 36.842 13.0421 35.0046ZM21.4137 24.9589C20.9886 24.6741 20.3487 24.0072 20.0793 24.8118C19.8096 25.6164 19.384 27.718 19.4175 28.1262C19.4512 28.5343 20.0375 28.9832 20.4799 29.1549C20.9223 29.3267 23.0385 31.5446 20.6007 34.6779C20.5149 34.7885 19.5102 36.1746 17.3212 35.7493C15.132 35.3239 13.5952 34.5655 13.2459 32.2576C12.8964 29.9495 15.1162 28.4888 15.1162 28.4888L15.0588 27.8585C15.0588 27.8585 14.4416 25.5222 14.0607 25.4089C13.6799 25.2954 13.4812 25.084 13.1094 25.7904C12.7374 26.4968 11.3115 28.9593 11.1742 30.2099C11.0368 31.4605 11.1536 34.0052 12.7766 35.7292C14.3995 37.4534 16.9563 38.3321 18.4569 37.9296C19.9576 37.527 22.0468 37.0059 23.2308 34.7188C24.4147 32.4316 23.9983 30.761 23.2975 29.1722C22.5969 27.5835 21.8389 25.2435 21.4137 24.9589Z" fill="#D8AF7F"/>
</g>
</g>
<defs>
<clipPath id="clip0_176_6221">
<rect width="33.6076" height="45" fill="white" transform="translate(0.619263)"/>
</clipPath>
<clipPath id="clip1_176_6221">
<rect width="33.6076" height="45" fill="white" transform="translate(0.619263)"/>
</clipPath>
</defs>
</svg>
