<svg width="65" height="64" viewBox="0 0 65 64" fill="none" xmlns="http://www.w3.org/2000/svg">
<g clip-path="url(#clip0_176_6225)">
<circle opacity="0.1" cx="32.3333" cy="32" r="32" fill="#50C8FC"/>
<circle opacity="0.1" cx="31.9998" cy="32" r="25" fill="#50C8FC"/>
<path opacity="0.4" d="M34.4192 27L30.2475 27L28.8464 25.393C27.4729 23.8176 29.0752 21.463 31.0804 22.1098L32.0082 22.4091C32.2194 22.4773 32.4473 22.4773 32.6585 22.4091L33.5863 22.1098C35.5915 21.463 37.1938 23.8176 35.8203 25.393L34.4192 27Z" fill="#0576F0"/>
<path opacity="0.4" d="M26.0176 30.2103C26.8004 27.7055 29.1202 26 31.7445 26H32.9222C35.5465 26 37.8663 27.7055 38.6491 30.2104L39.8991 34.2104C41.1065 38.0739 38.2201 42 34.1722 42H30.4945C26.4467 42 23.5603 38.0739 24.7676 34.2104L26.0176 30.2103Z" fill="#0576F0"/>
<path d="M32.3331 40C32.3331 38.8954 33.2285 38 34.3331 38H40.3331C41.4377 38 42.3331 38.8954 42.3331 40C42.3331 41.1046 41.4377 42 40.3331 42H34.3331C33.2285 42 32.3331 41.1046 32.3331 40Z" fill="#0576F0"/>
<path d="M32.3331 36C32.3331 34.8954 33.2285 34 34.3331 34H39.6664H40.3331C41.4377 34 42.3331 34.8954 42.3331 36C42.3331 37.1046 41.4377 38 40.3331 38H34.3331C33.2285 38 32.3331 37.1046 32.3331 36Z" fill="#0576F0"/>
</g>
<defs>
<clipPath id="clip0_176_6225">
<rect width="64" height="64" fill="white" transform="translate(0.333344)"/>
</clipPath>
</defs>
</svg>
