<svg width="14" height="14" viewBox="0 0 14 14" fill="none" xmlns="http://www.w3.org/2000/svg">
<g clip-path="url(#clip0_176_6229)">
<path opacity="0.4" d="M3.49999 12.8333H10.5C11.7887 12.8333 12.8333 11.7887 12.8333 10.5V5.75903H1.16666V10.5C1.16666 11.7887 2.21133 12.8333 3.49999 12.8333Z" fill="#5D2ECE"/>
<path fill-rule="evenodd" clip-rule="evenodd" d="M6.41666 1.60413C5.69178 1.60413 5.10416 2.19175 5.10416 2.91663V3.49996C5.10416 3.74158 4.90828 3.93746 4.66666 3.93746C4.42503 3.93746 4.22916 3.74158 4.22916 3.49996V2.91663C4.22916 1.7085 5.20853 0.729126 6.41666 0.729126H7.58332C8.79145 0.729126 9.77082 1.7085 9.77082 2.91663V3.49996C9.77082 3.74158 9.57495 3.93746 9.33332 3.93746C9.0917 3.93746 8.89582 3.74158 8.89582 3.49996V2.91663C8.89582 2.19175 8.3082 1.60413 7.58332 1.60413H6.41666Z" fill="#5D2ECE"/>
<path d="M10.5 3.5H3.49999C2.21133 3.5 1.16666 4.54467 1.16666 5.83333V7.58333H3.56141C3.65691 7.58333 3.73433 7.50591 3.73433 7.41041V7.41041C3.73433 6.92716 4.12608 6.53541 4.60933 6.53541C5.09258 6.53541 5.48433 6.92716 5.48433 7.41041V7.41041C5.48433 7.50591 5.56176 7.58333 5.65726 7.58333H8.34621C8.44171 7.58333 8.51913 7.50591 8.51913 7.41041V7.41041C8.51913 6.92716 8.91088 6.53541 9.39413 6.53541C9.87738 6.53541 10.2691 6.92716 10.2691 7.41041V7.41041C10.2691 7.50591 10.3466 7.58333 10.4421 7.58333H12.8333V5.83333C12.8333 4.54467 11.7887 3.5 10.5 3.5Z" fill="#5D2ECE"/>
<rect x="8.96042" y="7" width="0.875" height="1.62985" rx="0.4375" fill="#5D2ECE"/>
<rect x="4.17697" y="7" width="0.875" height="1.62985" rx="0.4375" fill="#5D2ECE"/>
</g>
<defs>
<clipPath id="clip0_176_6229">
<rect width="14" height="14" fill="white"/>
</clipPath>
</defs>
</svg>
