<svg width="15" height="15" viewBox="0 0 15 15" fill="none" xmlns="http://www.w3.org/2000/svg">
<g clip-path="url(#clip0_176_6228)">
<path fill-rule="evenodd" clip-rule="evenodd" d="M6.33333 1.22919C6.57496 1.22919 6.77083 1.42506 6.77083 1.66669V2.83335H5.89583V1.66669C5.89583 1.42506 6.09171 1.22919 6.33333 1.22919ZM8.66667 1.22919C8.90829 1.22919 9.10417 1.42506 9.10417 1.66669V2.83335H8.22917V1.66669C8.22917 1.42506 8.42504 1.22919 8.66667 1.22919ZM1.22917 6.33335C1.22917 6.09173 1.42504 5.89585 1.66667 5.89585H2.83333V6.77085H1.66667C1.42504 6.77085 1.22917 6.57498 1.22917 6.33335ZM12.1667 5.89585H13.3333C13.575 5.89585 13.7708 6.09173 13.7708 6.33335C13.7708 6.57498 13.575 6.77085 13.3333 6.77085H12.1667V5.89585ZM1.22917 8.66669C1.22917 8.42506 1.42504 8.22919 1.66667 8.22919H2.83333V9.10419H1.66667C1.42504 9.10419 1.22917 8.90831 1.22917 8.66669ZM12.1667 8.22919H13.3333C13.575 8.22919 13.7708 8.42506 13.7708 8.66669C13.7708 8.90831 13.575 9.10419 13.3333 9.10419H12.1667V8.22919ZM6.77083 12.1667V13.3334C6.77083 13.575 6.57496 13.7709 6.33333 13.7709C6.09171 13.7709 5.89583 13.575 5.89583 13.3334V12.1667H6.77083ZM9.10417 12.1667V13.3334C9.10417 13.575 8.90829 13.7709 8.66667 13.7709C8.42504 13.7709 8.22917 13.575 8.22917 13.3334V12.1667H9.10417Z" fill="#5D2ECE"/>
<path opacity="0.4" d="M2.83333 5.16671C2.83333 3.87804 3.878 2.83337 5.16667 2.83337H9.83333C11.122 2.83337 12.1667 3.87804 12.1667 5.16671V9.83337C12.1667 11.122 11.122 12.1667 9.83333 12.1667H5.16667C3.878 12.1667 2.83333 11.122 2.83333 9.83337V5.16671Z" fill="#5D2ECE"/>
<rect x="5.75" y="5.75" width="3.5" height="3.5" rx="1.75" fill="#5D2ECE"/>
</g>
<defs>
<clipPath id="clip0_176_6228">
<rect width="14" height="14" fill="white" transform="translate(0.5 0.5)"/>
</clipPath>
</defs>
</svg>
