<svg width="14" height="14" viewBox="0 0 14 14" fill="none" xmlns="http://www.w3.org/2000/svg">
<g clip-path="url(#clip0_178_6262)">
<path opacity="0.4" d="M10.5 11.6666H3.49999C2.21133 11.6666 1.16666 10.6219 1.16666 9.33325V8.16659C1.16666 4.94492 3.77833 2.33325 6.99999 2.33325C10.2217 2.33325 12.8333 4.94492 12.8333 8.16659V9.33325C12.8333 10.6219 11.7887 11.6666 10.5 11.6666Z" fill="#5D2ECE"/>
<path fill-rule="evenodd" clip-rule="evenodd" d="M6.99995 4.52075C5.57659 4.52075 4.74959 5.21905 4.19832 6.07094C4.06705 6.27379 3.79618 6.33183 3.59333 6.20056C3.39047 6.06928 3.33244 5.79842 3.46371 5.59557C4.13277 4.56166 5.2078 3.64575 6.99995 3.64575C8.79211 3.64575 9.86714 4.56166 10.5362 5.59557C10.6675 5.79842 10.6094 6.06928 10.4066 6.20056C10.2037 6.33183 9.93286 6.27379 9.80159 6.07094C9.25032 5.21905 8.42332 4.52075 6.99995 4.52075Z" fill="#5D2ECE"/>
<path fill-rule="evenodd" clip-rule="evenodd" d="M9.1413 7.19551C9.24936 6.97939 9.16176 6.7166 8.94564 6.60854C8.72953 6.50048 8.46673 6.58808 8.35868 6.8042L6.79665 9.92825C5.92595 10.029 5.25 10.7688 5.25 11.6666H8.75C8.75 10.9515 8.32111 10.3366 7.70653 10.065L9.1413 7.19551Z" fill="#5D2ECE"/>
</g>
<defs>
<clipPath id="clip0_178_6262">
<rect width="14" height="14" fill="white"/>
</clipPath>
</defs>
</svg>
