<svg width="13" height="13" viewBox="0 0 13 13" fill="none" xmlns="http://www.w3.org/2000/svg">
<g clip-path="url(#clip0_178_6257)">
<path opacity="0.4" d="M10.9375 3.9375C11.5819 3.9375 12.1042 4.45983 12.1042 5.10417L12.1042 10.9375C12.1042 11.5818 11.5819 12.1042 10.9375 12.1042C10.2932 12.1042 9.77087 11.5818 9.77087 10.9375L9.77087 5.10417C9.77087 4.45983 10.2932 3.9375 10.9375 3.9375Z" fill="#5D2ECE"/>
<path opacity="0.4" d="M1.60424 8.60425C2.24857 8.60425 2.77091 9.12658 2.77091 9.77091V10.9376C2.77091 11.5819 2.24857 12.1042 1.60424 12.1042C0.959907 12.1042 0.437572 11.5819 0.437572 10.9376L0.437573 9.77091C0.437573 9.12658 0.959907 8.60425 1.60424 8.60425Z" fill="#5D2ECE"/>
<path opacity="0.4" d="M6.2709 6.27075C6.91524 6.27075 7.43757 6.79309 7.43757 7.43742L7.43757 10.9374C7.43757 11.5818 6.91524 12.1041 6.2709 12.1041C5.62657 12.1041 5.10424 11.5818 5.10424 10.9374L5.10424 7.43742C5.10424 6.79309 5.62657 6.27075 6.2709 6.27075Z" fill="#5D2ECE"/>
<path fill-rule="evenodd" clip-rule="evenodd" d="M9.91671 0.4375C9.91671 0.195875 10.1126 0 10.3542 0H11.5209C12.0847 0 12.5417 0.457043 12.5417 1.02083V2.1875C12.5417 2.42912 12.3458 2.625 12.1042 2.625C11.8626 2.625 11.6667 2.42912 11.6667 2.1875V1.46482C9.40164 3.27928 7.64529 4.45802 5.94467 5.24679C4.20538 6.05349 2.54541 6.44255 0.493 6.7048C0.253325 6.73543 0.0342019 6.56596 0.00357611 6.32629C-0.0270497 6.08661 0.142419 5.86749 0.382095 5.83686C2.37925 5.58167 3.94467 5.20987 5.57651 4.45301C7.15683 3.72004 8.81893 2.61693 11.0032 0.875H10.3542C10.1126 0.875 9.91671 0.679125 9.91671 0.4375Z" fill="#5D2ECE"/>
</g>
<defs>
<clipPath id="clip0_178_6257">
<rect width="12.5417" height="12.1042" fill="white"/>
</clipPath>
</defs>
</svg>
