<svg width="15" height="15" viewBox="0 0 15 15" fill="none" xmlns="http://www.w3.org/2000/svg">
<g clip-path="url(#clip0_180_8372)">
<ellipse opacity="0.4" cx="4.875" cy="5.91488" rx="1.45833" ry="1.45833" fill="#5D2ECE"/>
<ellipse opacity="0.4" cx="10.125" cy="5.91488" rx="1.45833" ry="1.45833" fill="#5D2ECE"/>
<ellipse opacity="0.4" cx="7.5" cy="10.2896" rx="3.5" ry="1.75" fill="#5D2ECE"/>
<path fill-rule="evenodd" clip-rule="evenodd" d="M10.1218 11.4489C10.6683 11.1401 11 10.7342 11 10.2896C11 9.59715 10.1957 8.99866 9.02883 8.7149C9.44152 8.60306 9.91424 8.53955 10.4166 8.53955C12.0275 8.53955 13.3333 9.19247 13.3333 9.99788C13.3333 10.8033 12.0275 11.4562 10.4166 11.4562C10.3171 11.4562 10.2188 11.4537 10.1218 11.4489Z" fill="#5D2ECE"/>
<path fill-rule="evenodd" clip-rule="evenodd" d="M4.87812 11.4489C4.78118 11.4537 4.68284 11.4562 4.58333 11.4562C2.9725 11.4562 1.66667 10.8033 1.66667 9.99788C1.66667 9.19247 2.9725 8.53955 4.58333 8.53955C5.08572 8.53955 5.55844 8.60306 5.97113 8.7149C4.80424 8.99866 4 9.59715 4 10.2896C4 10.7342 4.33169 11.1401 4.87812 11.4489Z" fill="#5D2ECE"/>
<ellipse cx="7.5" cy="5.62305" rx="1.75" ry="1.75" fill="#5D2ECE"/>
</g>
<defs>
<clipPath id="clip0_180_8372">
<rect width="14" height="14" fill="white" transform="translate(0.5 0.956543)"/>
</clipPath>
</defs>
</svg>
