<svg width="153" height="150" viewBox="0 0 153 150" fill="none" xmlns="http://www.w3.org/2000/svg">
<g clip-path="url(#clip0_179_8368)">
<ellipse cx="76.1029" cy="75" rx="76.1029" ry="75" fill="white"/>
<path d="M109.926 55.3335H101.471V105.333C101.471 109.936 105.256 113.667 109.926 113.667C114.597 113.667 118.382 109.936 118.382 105.333V63.6668C118.382 59.0645 114.597 55.3335 109.926 55.3335Z" fill="#E3026F"/>
<path opacity="0.4" d="M88.7868 30.3335H46.5074C39.5023 30.3335 33.8235 35.9299 33.8235 42.8335V101.167C33.8235 108.07 39.5023 113.667 46.5074 113.667H109.926C105.256 113.667 101.471 109.936 101.471 105.333V42.8335C101.471 35.9299 95.7918 30.3335 88.7868 30.3335Z" fill="#E3026F"/>
<path fill-rule="evenodd" clip-rule="evenodd" d="M47.5643 51.1665C47.5643 49.4406 48.984 48.0415 50.7353 48.0415H84.5588C86.3101 48.0415 87.7298 49.4406 87.7298 51.1665C87.7298 52.8924 86.3101 54.2915 84.5588 54.2915H50.7353C48.984 54.2915 47.5643 52.8924 47.5643 51.1665Z" fill="#E3026F"/>
<path fill-rule="evenodd" clip-rule="evenodd" d="M47.5643 72C47.5643 70.2741 48.984 68.875 50.7353 68.875L84.5588 68.875C86.3101 68.875 87.7298 70.2741 87.7298 72C87.7298 73.7259 86.3101 75.125 84.5588 75.125L50.7353 75.125C48.984 75.125 47.5643 73.7259 47.5643 72Z" fill="#E3026F"/>
<path fill-rule="evenodd" clip-rule="evenodd" d="M47.5643 92.8335C47.5643 91.1076 48.984 89.7085 50.7353 89.7085H67.6471C69.3983 89.7085 70.818 91.1076 70.818 92.8335C70.818 94.5594 69.3983 95.9585 67.6471 95.9585H50.7353C48.984 95.9585 47.5643 94.5594 47.5643 92.8335Z" fill="#E3026F"/>
</g>
<defs>
<clipPath id="clip0_179_8368">
<rect width="152.206" height="150" fill="white"/>
</clipPath>
</defs>
</svg>
