<svg width="20" height="20" viewBox="0 0 20 20" fill="none" xmlns="http://www.w3.org/2000/svg">
<g clip-path="url(#clip0_176_6233)">
<path opacity="0.4" d="M20 10C20 15.5228 15.5228 20 10 20C4.47715 20 0 15.5228 0 10C0 4.47715 4.47715 0 10 0C15.5228 0 20 4.47715 20 10Z" fill="#5D2ECE"/>
<path fill-rule="evenodd" clip-rule="evenodd" d="M12.9685 6.28372C13.3827 6.28252 13.7195 6.61733 13.7207 7.03154L13.733 11.2742C13.7342 11.6884 13.3994 12.0251 12.9852 12.0263C12.571 12.0275 12.2342 11.6927 12.233 11.2785L12.226 8.84655L7.86216 13.2358C7.57012 13.5295 7.09525 13.5309 6.80151 13.2388C6.50776 12.9468 6.50639 12.4719 6.79843 12.1782L11.1622 7.78897L8.73025 7.79603C8.31604 7.79724 7.97928 7.46243 7.97808 7.04821C7.97688 6.634 8.31169 6.29724 8.7259 6.29604L12.9685 6.28372Z" fill="#5D2ECE"/>
</g>
<defs>
<clipPath id="clip0_176_6233">
<rect width="20" height="20" fill="white"/>
</clipPath>
</defs>
</svg>
