<svg width="250" height="74" viewBox="0 0 250 74" fill="none" xmlns="http://www.w3.org/2000/svg">
<path d="M0 18.4539V55.3617H20.5757L0 18.4539Z" fill="#8B6ADA"/>
<path d="M31.0974 0L0 18.4539L41.3852 18.4539L31.0974 0Z" fill="#8B6ADA"/>
<path d="M62.1931 18.4539L31.0958 0L41.3836 18.4539H62.1931Z" fill="#5D2ECE"/>
<path d="M31.0973 73.8158L62.1947 55.3619L20.5757 55.3617L31.0973 73.8158Z" fill="#8B6ADA"/>
<path d="M41.3871 18.4538L62.1966 55.3616V18.4538H41.3871Z" fill="#8B6ADA"/>
<path d="M0 55.3617L31.0973 73.8158L20.5757 55.3617H0Z" fill="#5D2ECE"/>
<path d="M139.753 48.6727H132.428V30.497C132.428 23.7799 137.825 18.0507 144.571 18.0507H148.233V25.558H144.571C141.873 25.558 139.753 27.7312 139.753 30.497V48.6727Z" fill="#5D2ECE"/>
<path d="M202.778 49.0681C194.491 49.0681 187.745 41.9559 187.745 33.4607C187.745 24.768 194.491 17.8534 202.778 17.8534C211.066 17.8534 217.812 24.9656 217.812 33.4607C217.812 42.1534 211.066 49.0681 202.778 49.0681ZM202.778 25.3607C198.538 25.3607 194.876 29.1144 194.876 33.4607C194.876 37.8071 198.345 41.5608 202.778 41.5608C207.019 41.5608 210.488 37.8071 210.488 33.4607C210.488 29.1144 207.019 25.3607 202.778 25.3607Z" fill="#5D2ECE"/>
<path d="M168.856 17.8533H163.074V25.3606H168.856C173.096 25.3606 176.759 29.1143 176.759 33.4606C176.759 37.807 173.289 41.5606 168.856 41.5606H167.507C163.267 41.5606 159.605 37.807 159.605 33.4606V3.4313H152.473V33.4606C152.473 42.1533 159.219 49.068 167.507 49.068H168.856C177.144 49.068 183.89 41.9558 183.89 33.4606C183.89 24.7679 177.144 17.8533 168.856 17.8533Z" fill="#5D2ECE"/>
<path d="M250 48.6728H242.676V31.4849C242.676 27.9288 239.785 25.163 236.508 25.163H235.352C231.882 25.163 229.184 28.1264 229.184 31.4849V48.6728H221.86V31.4849C221.86 23.78 227.835 17.6556 235.352 17.6556H236.315C243.832 17.6556 249.807 23.78 249.807 31.4849V48.6728H250Z" fill="#5D2ECE"/>
<path d="M93.3006 48.6728H83.4707C75.761 48.6728 69.4006 42.1533 69.4006 34.2508V33.0654C69.4006 25.163 75.761 18.6434 83.4707 18.6434H93.3006V26.1508H83.4707C79.8086 26.1508 76.7248 29.3118 76.7248 33.263V34.4484C76.7248 38.3996 79.8086 41.5606 83.4707 41.5606H93.3006V48.6728Z" fill="#5D2ECE"/>
<path d="M127.994 48.673H120.67V33.4607C120.67 28.9168 117.008 25.1632 112.575 25.1632C107.371 25.1632 104.094 29.1144 104.094 32.6705C104.094 33.0656 104.094 33.6583 104.094 33.8559C104.094 37.8071 107.178 40.9681 110.84 40.9681H117.201V48.4754H110.84C103.13 48.4754 96.7699 41.9559 96.7699 34.0534V32.868C96.7699 24.5705 103.901 17.8534 112.575 17.8534C121.055 17.8534 127.801 24.9656 127.801 33.4607V48.673H127.994Z" fill="#5D2ECE"/>
<path d="M245.116 70.3845C241.961 70.3845 240.114 68.9356 239.998 66.3415H242.662C242.802 67.5801 243.433 68.3046 245.092 68.3046C246.611 68.3046 247.289 67.7671 247.289 66.7388C247.289 65.7339 246.471 65.36 244.672 65.0562C241.447 64.542 240.255 63.6306 240.255 61.3403C240.255 58.8865 242.545 57.6713 244.835 57.6713C247.336 57.6713 249.322 58.6061 249.626 61.3637H247.009C246.775 60.242 246.144 59.7278 244.835 59.7278C243.62 59.7278 242.896 60.3121 242.896 61.1768C242.896 62.0648 243.48 62.4154 245.419 62.7425C248.294 63.1866 250 63.8877 250 66.4817C250 68.9589 248.247 70.3845 245.116 70.3845Z" fill="#4E4B66"/>
<path d="M233.568 70.3845C230.413 70.3845 228.566 68.9356 228.45 66.3415H231.114C231.254 67.5801 231.885 68.3046 233.544 68.3046C235.063 68.3046 235.741 67.7671 235.741 66.7388C235.741 65.7339 234.923 65.36 233.124 65.0562C229.899 64.542 228.707 63.6306 228.707 61.3403C228.707 58.8865 230.997 57.6713 233.287 57.6713C235.788 57.6713 237.774 58.6061 238.078 61.3637H235.461C235.227 60.242 234.596 59.7278 233.287 59.7278C232.072 59.7278 231.347 60.3121 231.347 61.1768C231.347 62.0648 231.932 62.4154 233.871 62.7425C236.746 63.1866 238.452 63.8877 238.452 66.4817C238.452 68.9589 236.699 70.3845 233.568 70.3845Z" fill="#4E4B66"/>
<path d="M221.089 70.3845C217.49 70.3845 214.896 68.0241 214.896 64.1681V63.9811C214.896 60.1952 217.49 57.6713 220.972 57.6713C224.01 57.6713 226.745 59.4707 226.745 63.8409V64.6589H217.794C217.887 66.9725 219.056 68.2812 221.159 68.2812C222.865 68.2812 223.753 67.6035 223.963 66.4116H226.698C226.301 68.9823 224.221 70.3845 221.089 70.3845ZM217.841 62.7659H223.94C223.8 60.6626 222.725 59.7278 220.972 59.7278C219.266 59.7278 218.121 60.8729 217.841 62.7659Z" fill="#4E4B66"/>
<path d="M201.496 70.1508V57.9283H204.323V59.868C204.908 58.6762 206.263 57.6713 208.273 57.6713C210.727 57.6713 212.456 59.0968 212.456 62.4621V70.1508H209.628V62.7192C209.628 60.8729 208.881 60.0316 207.198 60.0316C205.609 60.0316 204.323 61.0132 204.323 62.9529V70.1508H201.496Z" fill="#4E4B66"/>
<path d="M195.221 70.1508V57.9283H198.049V70.1508H195.221ZM196.6 55.9185C195.665 55.9185 194.917 55.2174 194.917 54.3059C194.917 53.3711 195.665 52.6701 196.6 52.6701C197.535 52.6701 198.283 53.3711 198.283 54.3059C198.283 55.2174 197.535 55.9185 196.6 55.9185Z" fill="#4E4B66"/>
<path d="M187.786 70.3845C184.631 70.3845 182.785 68.9356 182.668 66.3415H185.332C185.473 67.5801 186.104 68.3046 187.763 68.3046C189.282 68.3046 189.96 67.7671 189.96 66.7388C189.96 65.7339 189.142 65.36 187.342 65.0562C184.117 64.542 182.925 63.6306 182.925 61.3403C182.925 58.8865 185.216 57.6713 187.506 57.6713C190.006 57.6713 191.993 58.6061 192.297 61.3637H189.679C189.446 60.242 188.815 59.7278 187.506 59.7278C186.291 59.7278 185.566 60.3121 185.566 61.1768C185.566 62.0648 186.15 62.4154 188.09 62.7425C190.965 63.1866 192.671 63.8877 192.671 66.4817C192.671 68.9589 190.918 70.3845 187.786 70.3845Z" fill="#4E4B66"/>
<path d="M173.543 70.3845C171.136 70.3845 169.336 69.0057 169.336 65.7572V57.9283H172.164V65.4301C172.164 67.2763 172.935 68.1176 174.571 68.1176C176.09 68.1176 177.422 67.1361 177.422 65.1964V57.9283H180.25V70.1508H177.422V68.2345C176.815 69.4263 175.529 70.3845 173.543 70.3845Z" fill="#4E4B66"/>
<path d="M154.624 70.1508V53.4413H160.607C164.042 53.4413 166.076 54.75 166.076 57.7881V57.8816C166.076 59.5409 165.328 60.8496 163.435 61.4338C165.702 61.9246 166.777 63.1632 166.777 65.3833V65.4768C166.777 68.585 164.72 70.1508 161.051 70.1508H154.624ZM157.662 67.9307H160.677C162.757 67.9307 163.715 66.9959 163.715 65.2665V65.173C163.715 63.4436 162.757 62.579 160.467 62.579H157.662V67.9307ZM157.662 60.4757H160.233C162.29 60.4757 163.084 59.7278 163.084 58.0218V57.9283C163.084 56.3392 162.173 55.6615 160.186 55.6615H157.662V60.4757Z" fill="#4E4B66"/>
</svg>
